<svg width="45" height="45" viewBox="0 0 45 45" fill="none" xmlns="http://www.w3.org/2000/svg">
<rect x="0.692383" y="0.585815" width="43.8462" height="43.8462" rx="21.9231" fill="#E7707C"/>
<path fill-rule="evenodd" clip-rule="evenodd" d="M23.2578 33.9315C20.9025 33.9315 19.808 33.5862 17.9054 32.2049C16.702 33.7588 12.8911 34.9733 12.7249 32.8955C12.7249 31.3358 12.3811 30.0178 11.9914 28.5789C11.5272 26.8062 11 24.832 11 21.9715C11 15.1397 16.5816 10 23.1948 10C29.8137 10 34.9999 15.3929 34.9999 22.0348C35.0221 28.574 29.7687 33.8966 23.2578 33.9315ZM23.3553 15.9052C20.1346 15.7383 17.6246 17.9772 17.0687 21.488C16.6103 24.3946 17.424 27.9342 18.1175 28.1184C18.4498 28.199 19.2865 27.5198 19.808 26.9961C20.6703 27.5944 21.6745 27.9537 22.7192 28.0378C26.0563 28.1991 28.9077 25.6475 29.1318 22.2996C29.2622 18.9446 26.6928 16.1029 23.3553 15.9109L23.3553 15.9052Z" fill="white"/>
</svg>
