<svg width="44" height="44" viewBox="0 0 44 44" fill="none" xmlns="http://www.w3.org/2000/svg">
<path d="M22 0C16.1652 0 10.5695 2.31785 6.44365 6.44365C2.31785 10.5695 0 16.1652 0 22C0 27.8348 2.31785 33.4305 6.44365 37.5564C10.5695 41.6822 16.1652 44 22 44C27.8348 44 33.4305 41.6822 37.5564 37.5564C41.6822 33.4305 44 27.8348 44 22C44 16.1652 41.6822 10.5695 37.5564 6.44365C33.4305 2.31785 27.8348 0 22 0Z" fill="#E7707C"/>
<path d="M33.937 16.041C33.983 15.89 34.005 15.75 33.999 15.625C33.984 15.263 33.735 15 33.149 15H30.531C29.87 15 29.565 15.4 29.387 15.801C29.387 15.801 27.755 19.16 25.874 21.375C25.264 22.016 24.954 22 24.624 22C24.447 22 24 21.786 24 21.199V16.014C24 15.32 23.827 15 23.268 15H18.619C18.212 15 18 15.32 18 15.641C18 16.308 18.898 16.468 19 18.337V21.96C19 22.84 18.847 23 18.517 23C17.627 23 15.875 20 14.702 16.068C14.448 15.294 14.194 15 13.533 15H10.89C10.127 15 10 15.374 10 15.774C10 16.495 10.6 20.393 13.875 24.875C16.25 28.125 19.379 30 22.149 30C23.827 30 23.999 29.573 23.999 28.906V25.934C24 25.133 24.183 25 24.717 25C25.098 25 25.875 25.25 27.375 27C29.105 29.018 29.419 30 30.411 30H33.029C33.637 30 33.986 29.745 34 29.25C34.003 29.124 33.985 28.983 33.944 28.826C33.75 28.25 32.86 26.842 31.75 25.5C31.135 24.757 30.528 24.021 30.249 23.621C30.062 23.36 29.991 23.176 30 23C30.009 22.815 30.105 22.639 30.249 22.393C30.223 22.393 33.607 17.642 33.937 16.041Z" fill="white"/>
</svg>
