<svg width="18" height="16" viewBox="0 0 18 16" fill="none" xmlns="http://www.w3.org/2000/svg">
<path d="M17.0557 9.35144C16.527 9.35144 16.1746 9.66316 16.1746 10.1307V13.2479C16.1746 13.7155 15.8221 14.0272 15.2935 14.0272H2.95781C2.42914 14.0272 2.07669 13.7155 2.07669 13.2479V10.1307C2.07669 9.66316 1.72424 9.35144 1.19557 9.35144C0.666901 9.35144 0.314453 9.66316 0.314453 10.1307V13.2479C0.314453 14.5727 1.45991 15.5858 2.95781 15.5858H15.2935C16.7914 15.5858 17.9368 14.5727 17.9368 13.2479V10.1307C17.9368 9.66316 17.5844 9.35144 17.0557 9.35144Z" fill="#232323"/>
<path d="M8.5088 10.6763C8.59691 10.7542 8.68502 10.8321 8.77313 10.8321C8.86124 10.9101 9.03747 10.9101 9.12558 10.9101C9.21369 10.9101 9.38992 10.9101 9.47803 10.8321C9.56614 10.7542 9.65425 10.7542 9.74236 10.6763L14.148 6.77983C14.5004 6.46811 14.5004 6.00054 14.148 5.68882C13.7955 5.37711 13.2668 5.37711 12.9144 5.68882L10.0067 8.26048V0.779291C10.0067 0.311716 9.65425 0 9.12558 0C8.59691 0 8.24446 0.311716 8.24446 0.779291V8.26048L5.33677 5.68882C4.98432 5.37711 4.45565 5.37711 4.1032 5.68882C3.75076 6.00054 3.75076 6.46811 4.1032 6.77983L8.5088 10.6763Z" fill="#232323"/>
</svg>
