<svg width="196" height="60" viewBox="0 0 196 60" fill="none" xmlns="http://www.w3.org/2000/svg">
<path d="M56.6599 2H6.09126C3.83172 2 2 4.15654 2 6.81677V53.0473C2 55.7075 3.83172 57.8641 6.09126 57.8641H56.6599C58.9194 57.8641 60.7511 55.7075 60.7511 53.0473V6.81677C60.7511 4.15654 58.9194 2 56.6599 2Z" fill="#E7707C" stroke="#E7707C" stroke-width="2.34401" stroke-miterlimit="22.9256"/>
<path d="M91.7981 8.71608V25.7618H84.0419V8.32715L81.7233 8.71608V25.7618H73.9671V8.32715L71.6484 8.71608V26.5396L73.9671 26.1507H94.1242V8.32715L91.7981 8.71608Z" fill="white"/>
<path d="M108.073 18.3347C109.165 18.1627 110.399 17.5419 110.399 15.687C110.399 13.3609 107.714 12.583 105.358 12.583H99.9355L97.6094 12.9719V26.5397L99.9355 26.1507C101.214 26.3676 102.508 26.4948 103.81 26.5397C108.851 26.5397 111.17 25.3729 111.17 22.2764C111.17 20.0924 109.816 18.8658 108.073 18.3347ZM99.9355 12.9719H104.969C106.525 12.9719 108.073 13.7498 108.073 15.687C108.073 17.2352 107.303 18.0131 105.747 18.0131H99.9355V12.9719ZM103.81 26.1507C102.508 26.1059 101.214 25.9787 99.9355 25.7618V18.402H105.358C107.303 18.402 108.851 19.7259 108.851 22.2764C108.844 24.2136 107.684 26.1507 103.81 26.1507Z" fill="white"/>
<path d="M120.991 26.1511C118.665 26.1511 115.568 24.2139 115.568 19.5617V19.5542C118.792 19.442 121.604 18.0134 124.865 18.0134H127.064C126.825 16.3081 125.89 14.7823 124.484 13.8025V13.795C124.446 13.7651 124.402 13.7501 124.364 13.7202C124.282 13.6679 124.192 13.6155 124.11 13.5631C124.043 13.5258 123.968 13.4809 123.893 13.4435C123.796 13.3986 123.713 13.3537 123.616 13.3088C123.541 13.2715 123.467 13.2415 123.384 13.2041C123.295 13.1667 123.197 13.1219 123.108 13.0845C123.025 13.0545 122.936 13.0321 122.853 13.0022C122.756 12.9723 122.666 12.9349 122.569 12.9124C122.472 12.8825 122.382 12.8601 122.285 12.8376C122.195 12.8152 122.105 12.7928 122.008 12.7703C121.903 12.7479 121.799 12.7329 121.694 12.718C121.604 12.6955 121.522 12.6806 121.432 12.6731C121.305 12.6507 121.178 12.6432 121.051 12.6357C120.976 12.6207 120.909 12.6133 120.834 12.6133C120.632 12.5983 120.422 12.5908 120.213 12.5908C116.346 12.5908 113.242 14.9169 113.242 19.5617C113.242 19.8309 113.257 20.0927 113.272 20.3395C113.601 24.4757 116.563 26.54 120.213 26.54C121.829 26.54 124.095 25.7696 125.254 24.6028L124.865 23.825C124.013 25.1638 122.577 26.0239 120.991 26.1511ZM119.443 12.9723C119.607 12.9723 119.772 12.9872 119.936 13.0097C119.981 13.0097 120.026 13.0171 120.071 13.0246C120.213 13.0471 120.348 13.0695 120.482 13.0994C120.52 13.1144 120.557 13.1144 120.594 13.1293C120.767 13.1667 120.939 13.2191 121.103 13.2864C121.14 13.3014 121.178 13.3163 121.215 13.3313C121.357 13.3911 121.492 13.451 121.627 13.5183C121.672 13.5407 121.716 13.5631 121.761 13.5856C121.933 13.6753 122.098 13.7801 122.262 13.8848L122.277 13.9072C122.434 14.0119 122.592 14.1316 122.734 14.2587C122.778 14.2961 122.816 14.3335 122.861 14.3709C122.98 14.4831 123.108 14.6103 123.22 14.7449C123.25 14.7673 123.28 14.7973 123.302 14.8272C123.444 14.9917 123.579 15.1638 123.698 15.3433C124.162 16.0388 124.491 16.8167 124.656 17.632C121.492 17.6918 118.732 19.0606 115.576 19.1653C115.636 16.1735 116.473 12.9723 119.443 12.9723Z" fill="white"/>
<path d="M139.293 12.9723V16.151L131.544 25.4331V12.5833L129.218 12.9723V26.54L131.544 26.1511V26.0464L139.293 16.7644V26.54L141.619 26.1511V12.5833L139.293 12.9723ZM138.522 8.70898C138.522 8.70898 136.974 9.87578 132.711 9.87578V10.6536C134.782 10.6985 136.862 10.5714 138.911 10.2647L138.522 8.70898Z" fill="white"/>
<path d="M154.753 12.9719V17.2352C152.038 17.2352 149.719 18.791 147.004 18.791V12.583L144.678 12.9719V26.5397L147.004 26.1507V19.1799C149.719 19.1799 152.038 17.6242 154.753 17.6242V26.5397L157.079 26.1507V12.583L154.753 12.9719Z" fill="white"/>
<path d="M171.245 12.9726V14.0871C169.913 13.0698 168.275 12.5388 166.593 12.5837C162.718 12.5837 159.614 14.9098 159.614 19.562C159.614 24.2142 162.718 26.5403 166.593 26.5403C168.275 26.5852 169.913 26.0542 171.245 25.037V26.5403L173.571 26.1514V12.5837L171.245 12.9726ZM167.37 26.1514C165.044 26.1514 161.94 24.2142 161.94 19.562C161.94 16.4655 162.718 12.9726 165.822 12.9726C167.887 13.0773 169.831 13.9823 171.245 15.4932V24.0198C170.355 25.2988 168.926 26.0841 167.37 26.1514Z" fill="white"/>
<path d="M186.219 12.9722C185.082 12.6805 183.908 12.5459 182.734 12.5833C179.241 12.5833 176.145 13.7501 176.145 16.8466C176.145 19.4868 178.104 20.7134 180.842 21.0276C177.551 21.8653 176.533 24.2662 176.533 26.151L178.082 26.5399C178.082 24.6028 178.082 21.1098 183.115 21.1098H186.219V26.5399L188.538 26.151V12.5833L186.219 12.9722ZM186.219 20.7284H182.734C180.019 20.7284 178.471 19.3971 178.471 16.8466C178.471 14.9094 179.63 12.9722 182.734 12.9722C183.908 12.9348 185.082 13.0694 186.219 13.3611V20.7284Z" fill="white"/>
<path d="M76.5774 43.9824L85.4705 36.5179L85.2236 36.2188L73.9671 45.6578V36.2188L71.6484 36.6077V54.4312L73.9671 54.0498V46.1664L76.1137 44.3714C81.7681 44.5434 83.6604 51.7536 83.6604 54.4312L85.2087 54.0498C85.2087 50.6092 82.5759 44.1769 76.5774 43.9824Z" fill="white"/>
<path d="M94.1994 40.4814C90.3325 40.4814 87.2285 42.8076 87.2285 47.4523C87.2285 52.112 90.3325 54.4306 94.1994 54.4306C98.0812 54.4306 101.178 52.112 101.178 47.4523C101.178 42.8076 98.0812 40.4814 94.1994 40.4814ZM94.9772 54.0492C92.6511 54.0492 89.5546 52.112 89.5546 47.4523C89.5546 44.3558 90.3325 40.8704 93.429 40.8704C95.7551 40.8704 98.8591 42.8076 98.8591 47.4523C98.8591 50.5563 98.0812 54.0492 94.9772 54.0492Z" fill="white"/>
<path d="M110.699 40.482C109.024 40.4296 107.386 40.9682 106.055 41.9854V40.8709L103.729 41.2599V59.0834L106.055 58.6945V52.9278C107.386 53.9525 109.024 54.4836 110.699 54.4312C114.581 54.4312 117.678 52.1126 117.678 47.4529C117.678 42.8081 114.581 40.482 110.699 40.482ZM111.477 54.0497C109.413 53.945 107.468 53.04 106.055 51.5292V43.0026C106.945 41.7236 108.373 40.9308 109.929 40.8709C112.255 40.8709 115.359 42.8081 115.359 47.4529C115.359 50.5568 114.581 54.0497 111.477 54.0497Z" fill="white"/>
<path d="M126.705 40.4814C122.831 40.4814 119.734 42.8076 119.734 47.4523C119.734 52.112 122.831 54.4306 126.705 54.4306C130.58 54.4306 133.684 52.112 133.684 47.4523C133.684 42.8076 130.58 40.4814 126.705 40.4814ZM127.483 54.0492C125.157 54.0492 122.06 52.112 122.06 47.4523C122.06 44.3558 122.831 40.8704 125.935 40.8704C128.261 40.8704 131.357 42.8076 131.357 47.4523C131.357 50.5563 130.58 54.0492 127.483 54.0492Z" fill="white"/>
<path d="M144.565 40.8704H137.976C137.669 43.7051 137.542 46.5473 137.587 49.397C137.587 52.8824 136.039 54.0492 134.102 54.0492L134.49 54.4306C136.428 54.4306 137.976 52.8824 137.976 49.7859C137.939 46.9362 138.058 44.094 138.312 41.2593H144.565V54.4306L146.884 54.0492V40.4814L144.565 40.8704Z" fill="white"/>
<path d="M157.184 54.0495C154.858 54.0495 151.762 52.1123 151.762 47.4526V47.4452C154.993 47.333 157.805 45.9044 161.066 45.9044H163.258C163.018 44.2065 162.083 42.6807 160.677 41.6935C160.64 41.6635 160.595 41.6411 160.558 41.6187C160.475 41.5588 160.393 41.5139 160.303 41.4616C160.236 41.4167 160.161 41.3793 160.086 41.3419C159.997 41.2896 159.907 41.2447 159.81 41.1998C159.735 41.1699 159.66 41.1325 159.578 41.0951C159.488 41.0577 159.398 41.0203 159.301 40.9829C159.219 40.953 159.129 40.9231 159.047 40.8931C158.957 40.8632 158.86 40.8333 158.762 40.8034C158.665 40.7735 158.575 40.751 158.486 40.7361C158.388 40.7062 158.299 40.6837 158.201 40.6613C158.097 40.6463 157.992 40.6239 157.887 40.6089C157.805 40.594 157.715 40.579 157.626 40.5641C157.498 40.5491 157.371 40.5416 157.252 40.5267C157.177 40.5192 157.102 40.5117 157.027 40.5042C156.825 40.4893 156.623 40.4893 156.406 40.4893C152.54 40.4893 149.436 42.8079 149.436 47.4601C149.436 47.7219 149.451 47.9837 149.473 48.238C149.795 52.3666 152.756 54.431 156.406 54.431C158.022 54.431 160.288 53.6606 161.448 52.4938L161.066 51.7234C160.206 53.0622 158.77 53.9149 157.184 54.0495ZM155.636 40.8707C155.801 40.8707 155.965 40.8857 156.13 40.9006C156.175 40.9081 156.219 40.9081 156.264 40.9231C156.406 40.938 156.541 40.9679 156.676 40.9979C156.713 41.0053 156.75 41.0128 156.788 41.0203C156.96 41.0652 157.132 41.1175 157.296 41.1848C157.334 41.1998 157.371 41.2148 157.409 41.2297C157.551 41.2821 157.685 41.3419 157.82 41.4167C157.865 41.4391 157.91 41.4541 157.955 41.484C158.127 41.5738 158.291 41.6785 158.456 41.7832L158.478 41.7982C158.628 41.9104 158.785 42.03 158.927 42.1572C158.972 42.1946 159.009 42.232 159.054 42.2694C159.174 42.3816 159.301 42.5087 159.413 42.6359C159.443 42.6658 159.473 42.6957 159.495 42.7256C159.638 42.8902 159.772 43.0622 159.892 43.2417C160.356 43.9373 160.685 44.7077 160.849 45.5304C157.685 45.5828 154.925 46.9515 151.769 47.0562C151.829 44.0644 152.667 40.8707 155.636 40.8707Z" fill="white"/>
<path d="M175.875 46.2331C176.967 46.0536 178.201 45.4328 178.201 43.5854C178.201 41.2593 175.524 40.4814 173.168 40.4814H167.738L165.419 40.8704V54.4306L167.738 54.0492C169.024 54.2586 170.318 54.3858 171.619 54.4306C176.653 54.4306 178.979 53.2713 178.979 50.1673C178.979 47.9833 177.625 46.7642 175.875 46.2331ZM167.738 40.8704H172.779C174.327 40.8704 175.875 41.6482 175.875 43.5854C175.875 45.1337 175.105 45.9041 173.557 45.9041H167.738V40.8704ZM171.619 54.0492C170.318 53.9968 169.024 53.8697 167.738 53.6602V46.293H173.168C175.105 46.293 176.653 47.6243 176.653 50.1673C176.653 52.112 175.486 54.0492 171.619 54.0492Z" fill="white"/>
<path d="M192.674 40.8709V41.9854C191.343 40.9682 189.705 40.4296 188.022 40.482C184.147 40.482 181.051 42.8081 181.051 47.4529C181.051 52.1126 184.147 54.4312 188.022 54.4312C189.705 54.4836 191.343 53.9525 192.674 52.9278V54.4312L195 54.0497V40.482L192.674 40.8709ZM188.799 54.0497C186.473 54.0497 183.369 52.1126 183.369 47.4529C183.369 44.3564 184.147 40.8709 187.251 40.8709C189.316 40.9756 191.26 41.8732 192.674 43.384V51.9181C191.784 53.1896 190.355 53.9824 188.799 54.0497Z" fill="white"/>
<path d="M91.7981 8.71608V25.7618H84.0419V8.32715L81.7233 8.71608V25.7618H73.9671V8.32715L71.6484 8.71608V26.5396L73.9671 26.1507H94.1242V8.32715L91.7981 8.71608Z" stroke="white" stroke-width="0.883809" stroke-miterlimit="22.9256"/>
<path d="M108.073 18.3347C109.165 18.1627 110.399 17.5419 110.399 15.687C110.399 13.3609 107.714 12.583 105.358 12.583H99.9355L97.6094 12.9719V26.5397L99.9355 26.1507C101.214 26.3676 102.508 26.4948 103.81 26.5397C108.851 26.5397 111.17 25.3729 111.17 22.2764C111.17 20.0924 109.816 18.8658 108.073 18.3347ZM99.9355 12.9719H104.969C106.525 12.9719 108.073 13.7498 108.073 15.687C108.073 17.2352 107.303 18.0131 105.747 18.0131H99.9355V12.9719ZM103.81 26.1507C102.508 26.1059 101.214 25.9787 99.9355 25.7618V18.402H105.358C107.303 18.402 108.851 19.7259 108.851 22.2764C108.844 24.2136 107.684 26.1507 103.81 26.1507Z" stroke="white" stroke-width="0.883809" stroke-miterlimit="22.9256"/>
<path d="M120.991 26.1511C118.665 26.1511 115.568 24.2139 115.568 19.5617V19.5542C118.792 19.442 121.604 18.0134 124.865 18.0134H127.064C126.825 16.3081 125.89 14.7823 124.484 13.8025V13.795C124.446 13.7651 124.402 13.7501 124.364 13.7202C124.282 13.6679 124.192 13.6155 124.11 13.5631C124.043 13.5258 123.968 13.4809 123.893 13.4435C123.796 13.3986 123.713 13.3537 123.616 13.3088C123.541 13.2715 123.467 13.2415 123.384 13.2041C123.295 13.1667 123.197 13.1219 123.108 13.0845C123.025 13.0545 122.936 13.0321 122.853 13.0022C122.756 12.9723 122.666 12.9349 122.569 12.9124C122.472 12.8825 122.382 12.8601 122.285 12.8376C122.195 12.8152 122.105 12.7928 122.008 12.7703C121.903 12.7479 121.799 12.7329 121.694 12.718C121.604 12.6955 121.522 12.6806 121.432 12.6731C121.305 12.6507 121.178 12.6432 121.051 12.6357C120.976 12.6207 120.909 12.6133 120.834 12.6133C120.632 12.5983 120.422 12.5908 120.213 12.5908C116.346 12.5908 113.242 14.9169 113.242 19.5617C113.242 19.8309 113.257 20.0927 113.272 20.3395C113.601 24.4757 116.563 26.54 120.213 26.54C121.829 26.54 124.095 25.7696 125.254 24.6028L124.865 23.825C124.013 25.1638 122.577 26.0239 120.991 26.1511ZM119.443 12.9723C119.607 12.9723 119.772 12.9872 119.936 13.0097C119.981 13.0097 120.026 13.0171 120.071 13.0246C120.213 13.0471 120.348 13.0695 120.482 13.0994C120.52 13.1144 120.557 13.1144 120.594 13.1293C120.767 13.1667 120.939 13.2191 121.103 13.2864C121.14 13.3014 121.178 13.3163 121.215 13.3313C121.357 13.3911 121.492 13.451 121.627 13.5183C121.672 13.5407 121.716 13.5631 121.761 13.5856C121.933 13.6753 122.098 13.7801 122.262 13.8848L122.277 13.9072C122.434 14.0119 122.592 14.1316 122.734 14.2587C122.778 14.2961 122.816 14.3335 122.861 14.3709C122.98 14.4831 123.108 14.6103 123.22 14.7449C123.25 14.7673 123.28 14.7973 123.302 14.8272C123.444 14.9917 123.579 15.1638 123.698 15.3433C124.162 16.0388 124.491 16.8167 124.656 17.632C121.492 17.6918 118.732 19.0606 115.576 19.1653C115.636 16.1735 116.473 12.9723 119.443 12.9723Z" stroke="white" stroke-width="0.883809" stroke-miterlimit="22.9256"/>
<path d="M139.293 12.9723V16.151L131.544 25.4331V12.5833L129.218 12.9723V26.54L131.544 26.1511V26.0464L139.293 16.7644V26.54L141.619 26.1511V12.5833L139.293 12.9723ZM138.522 8.70898C138.522 8.70898 136.974 9.87578 132.711 9.87578V10.6536C134.782 10.6985 136.862 10.5714 138.911 10.2647L138.522 8.70898Z" stroke="white" stroke-width="0.883809" stroke-miterlimit="22.9256"/>
<path d="M154.753 12.9719V17.2352C152.038 17.2352 149.719 18.791 147.004 18.791V12.583L144.678 12.9719V26.5397L147.004 26.1507V19.1799C149.719 19.1799 152.038 17.6242 154.753 17.6242V26.5397L157.079 26.1507V12.583L154.753 12.9719Z" stroke="white" stroke-width="0.883809" stroke-miterlimit="22.9256"/>
<path d="M171.245 12.9726V14.0871C169.913 13.0698 168.275 12.5388 166.593 12.5837C162.718 12.5837 159.614 14.9098 159.614 19.562C159.614 24.2142 162.718 26.5403 166.593 26.5403C168.275 26.5852 169.913 26.0542 171.245 25.037V26.5403L173.571 26.1514V12.5837L171.245 12.9726ZM167.37 26.1514C165.044 26.1514 161.94 24.2142 161.94 19.562C161.94 16.4655 162.718 12.9726 165.822 12.9726C167.887 13.0773 169.831 13.9823 171.245 15.4932V24.0198C170.355 25.2988 168.926 26.0841 167.37 26.1514Z" stroke="white" stroke-width="0.883809" stroke-miterlimit="22.9256"/>
<path d="M186.219 12.9722C185.082 12.6805 183.908 12.5459 182.734 12.5833C179.241 12.5833 176.145 13.7501 176.145 16.8466C176.145 19.4868 178.104 20.7134 180.842 21.0276C177.551 21.8653 176.533 24.2662 176.533 26.151L178.082 26.5399C178.082 24.6028 178.082 21.1098 183.115 21.1098H186.219V26.5399L188.538 26.151V12.5833L186.219 12.9722ZM186.219 20.7284H182.734C180.019 20.7284 178.471 19.3971 178.471 16.8466C178.471 14.9094 179.63 12.9722 182.734 12.9722C183.908 12.9348 185.082 13.0694 186.219 13.3611V20.7284Z" stroke="white" stroke-width="0.883809" stroke-miterlimit="22.9256"/>
<path d="M76.5774 43.9824L85.4705 36.5179L85.2237 36.2188L73.9671 45.6578V36.2188L71.6484 36.6077V54.4312L73.9671 54.0498V46.1664L76.1137 44.3714C81.7681 44.5434 83.6604 51.7536 83.6604 54.4312L85.2087 54.0498C85.2087 50.6092 82.5759 44.1769 76.5774 43.9824Z" stroke="white" stroke-width="0.883809" stroke-miterlimit="22.9256"/>
<path d="M94.1994 40.4814C90.3325 40.4814 87.2285 42.8076 87.2285 47.4523C87.2285 52.112 90.3325 54.4306 94.1994 54.4306C98.0812 54.4306 101.178 52.112 101.178 47.4523C101.178 42.8076 98.0812 40.4814 94.1994 40.4814ZM94.9772 54.0492C92.6511 54.0492 89.5546 52.112 89.5546 47.4523C89.5546 44.3558 90.3325 40.8704 93.429 40.8704C95.7551 40.8704 98.8591 42.8076 98.8591 47.4523C98.8591 50.5563 98.0812 54.0492 94.9772 54.0492Z" stroke="white" stroke-width="0.883809" stroke-miterlimit="22.9256"/>
<path d="M110.699 40.482C109.024 40.4296 107.386 40.9682 106.055 41.9854V40.8709L103.729 41.2599V59.0834L106.055 58.6945V52.9278C107.386 53.9525 109.024 54.4836 110.699 54.4312C114.581 54.4312 117.678 52.1126 117.678 47.4529C117.678 42.8081 114.581 40.482 110.699 40.482ZM111.477 54.0497C109.413 53.945 107.468 53.04 106.055 51.5292V43.0026C106.945 41.7236 108.373 40.9308 109.929 40.8709C112.255 40.8709 115.359 42.8081 115.359 47.4529C115.359 50.5568 114.581 54.0497 111.477 54.0497Z" stroke="white" stroke-width="0.883809" stroke-miterlimit="22.9256"/>
<path d="M126.705 40.4814C122.831 40.4814 119.734 42.8076 119.734 47.4523C119.734 52.112 122.831 54.4306 126.705 54.4306C130.58 54.4306 133.684 52.112 133.684 47.4523C133.684 42.8076 130.58 40.4814 126.705 40.4814ZM127.483 54.0492C125.157 54.0492 122.06 52.112 122.06 47.4523C122.06 44.3558 122.831 40.8704 125.935 40.8704C128.261 40.8704 131.357 42.8076 131.357 47.4523C131.357 50.5563 130.58 54.0492 127.483 54.0492Z" stroke="white" stroke-width="0.883809" stroke-miterlimit="22.9256"/>
<path d="M144.565 40.8704H137.976C137.669 43.7051 137.542 46.5473 137.587 49.397C137.587 52.8824 136.039 54.0492 134.102 54.0492L134.49 54.4306C136.428 54.4306 137.976 52.8824 137.976 49.7859C137.939 46.9362 138.058 44.094 138.312 41.2593H144.565V54.4306L146.884 54.0492V40.4814L144.565 40.8704Z" stroke="white" stroke-width="0.883809" stroke-miterlimit="22.9256"/>
<path d="M157.184 54.0495C154.858 54.0495 151.762 52.1123 151.762 47.4526V47.4452C154.993 47.333 157.805 45.9044 161.066 45.9044H163.258C163.018 44.2065 162.083 42.6807 160.677 41.6935C160.64 41.6635 160.595 41.6411 160.558 41.6187C160.475 41.5588 160.393 41.5139 160.303 41.4616C160.236 41.4167 160.161 41.3793 160.086 41.3419C159.997 41.2896 159.907 41.2447 159.81 41.1998C159.735 41.1699 159.66 41.1325 159.578 41.0951C159.488 41.0577 159.398 41.0203 159.301 40.9829C159.219 40.953 159.129 40.9231 159.047 40.8931C158.957 40.8632 158.86 40.8333 158.762 40.8034C158.665 40.7735 158.575 40.751 158.486 40.7361C158.388 40.7062 158.299 40.6837 158.201 40.6613C158.097 40.6463 157.992 40.6239 157.887 40.6089C157.805 40.594 157.715 40.579 157.626 40.5641C157.498 40.5491 157.371 40.5416 157.252 40.5267C157.177 40.5192 157.102 40.5117 157.027 40.5042C156.825 40.4893 156.623 40.4893 156.406 40.4893C152.54 40.4893 149.436 42.8079 149.436 47.4601C149.436 47.7219 149.451 47.9837 149.473 48.238C149.795 52.3666 152.756 54.431 156.406 54.431C158.022 54.431 160.288 53.6606 161.448 52.4938L161.066 51.7234C160.206 53.0622 158.77 53.9149 157.184 54.0495ZM155.636 40.8707C155.801 40.8707 155.965 40.8857 156.13 40.9006C156.175 40.9081 156.219 40.9081 156.264 40.9231C156.406 40.938 156.541 40.9679 156.676 40.9979C156.713 41.0053 156.75 41.0128 156.788 41.0203C156.96 41.0652 157.132 41.1175 157.296 41.1848C157.334 41.1998 157.371 41.2148 157.409 41.2297C157.551 41.2821 157.685 41.3419 157.82 41.4167C157.865 41.4391 157.91 41.4541 157.955 41.484C158.127 41.5738 158.291 41.6785 158.456 41.7832L158.478 41.7982C158.628 41.9104 158.785 42.03 158.927 42.1572C158.972 42.1946 159.009 42.232 159.054 42.2694C159.174 42.3816 159.301 42.5087 159.413 42.6359C159.443 42.6658 159.473 42.6957 159.495 42.7256C159.638 42.8902 159.772 43.0622 159.892 43.2417C160.356 43.9373 160.685 44.7077 160.849 45.5304C157.685 45.5828 154.925 46.9515 151.769 47.0562C151.829 44.0644 152.667 40.8707 155.636 40.8707Z" stroke="white" stroke-width="0.883809" stroke-miterlimit="22.9256"/>
<path d="M175.875 46.2331C176.967 46.0536 178.201 45.4328 178.201 43.5854C178.201 41.2593 175.524 40.4814 173.168 40.4814H167.738L165.419 40.8704V54.4306L167.738 54.0492C169.024 54.2586 170.318 54.3858 171.619 54.4306C176.653 54.4306 178.979 53.2713 178.979 50.1673C178.979 47.9833 177.625 46.7642 175.875 46.2331ZM167.738 40.8704H172.779C174.327 40.8704 175.875 41.6482 175.875 43.5854C175.875 45.1337 175.105 45.9041 173.557 45.9041H167.738V40.8704ZM171.619 54.0492C170.318 53.9968 169.024 53.8697 167.738 53.6602V46.293H173.168C175.105 46.293 176.653 47.6243 176.653 50.1673C176.653 52.112 175.486 54.0492 171.619 54.0492Z" stroke="white" stroke-width="0.883809" stroke-miterlimit="22.9256"/>
<path d="M192.674 40.8709V41.9854C191.343 40.9682 189.705 40.4296 188.022 40.482C184.147 40.482 181.051 42.8081 181.051 47.4529C181.051 52.1126 184.147 54.4312 188.022 54.4312C189.705 54.4836 191.343 53.9525 192.674 52.9278V54.4312L195 54.0497V40.482L192.674 40.8709ZM188.799 54.0497C186.473 54.0497 183.369 52.1126 183.369 47.4529C183.369 44.3564 184.147 40.8709 187.251 40.8709C189.316 40.9756 191.26 41.8732 192.674 43.384V51.9181C191.784 53.1896 190.355 53.9824 188.799 54.0497Z" stroke="white" stroke-width="0.883809" stroke-miterlimit="22.9256"/>
<path fill-rule="evenodd" clip-rule="evenodd" d="M11.6036 50.1078L13.2341 50.1377C13.5258 49.7488 13.7951 49.2477 14.1616 48.5296C15.4779 49.2477 16.8018 50.3771 18.6642 50.0181C20.4144 49.6815 21.6036 48.41 22.1347 46.8318C23.294 47.8116 24.6926 48.9859 26.6523 48.3726C28.1855 47.8939 29.4944 46.2484 30.1526 45.1115C30.3621 45.4257 30.6388 45.7548 30.8931 46.0614C31.671 47.0113 32.6358 47.7667 33.7727 48.1931C36.3307 49.1654 37.5349 46.6299 38.395 46.6598C38.5895 46.9515 38.6867 47.2955 39.1205 47.9313C39.3823 48.3127 39.659 48.6343 40.0854 48.9335C42.0524 50.3172 43.7503 49.6366 45.6052 48.3726C45.9418 48.1407 45.8595 48.0884 46.2484 48.2005C46.6224 48.3127 46.5925 48.2978 46.772 48.6568C47.0712 49.2477 47.1609 49.5618 47.692 49.9283C47.4751 49.5768 46.9515 49.0981 46.7271 48.2529C47.2357 47.6321 47.8266 47.4676 49.3225 45.5154C50.1452 44.4384 50.3247 44.012 50.938 43.0173C51.125 42.7181 51.3345 42.4788 51.4317 42.1123C52.03 41.469 53.2791 38.2977 53.511 37.5049C53.7802 36.5775 53.9822 35.8071 54.1467 34.7824C54.2215 34.2738 54.4459 32.2917 54.3487 31.7607C54.1617 30.8108 52.8154 32.2169 52.4788 32.4862C51.7458 33.0771 49.9283 34.7375 49.3898 35.478L48.7017 36.3755C48.4848 36.6971 48.2978 36.9814 48.0659 37.3479C46.8468 39.2775 45.8071 42.0599 45.665 44.7301C45.5828 46.1886 45.9044 46.8468 45.9343 47.9238C43.3614 49.9956 40.4219 50.3172 38.7615 46.6074C39.0831 45.7996 41.0352 44.947 43.9672 35.7846C44.573 33.9148 45.1564 31.11 45.4332 29.0157C45.6501 27.4451 45.8969 23.0247 45.5902 21.3044C45.3883 20.1451 44.6777 21.5138 44.5655 21.656C44.2664 22.0449 44.0195 22.4937 43.7353 22.9349C43.1445 23.8773 42.6957 24.6029 42.1422 25.5752C40.5715 28.3052 38.9784 30.8856 38.2604 34.4084L37.6396 38.0285C36.8692 43.9746 37.8116 44.8198 37.8789 46.2708C37.6022 46.5027 37.5947 46.5775 37.3254 46.6523C36.8318 47.6321 34.947 48.2005 33.3987 47.3479C32.4563 46.8318 30.9679 45.5005 30.6538 44.401C30.923 43.84 31.3493 43.2192 31.6859 42.6358C34.3561 37.9836 35.6052 31.7457 35.5902 25.9043C35.5752 19.5916 34.2439 14.2887 31.5887 9.30737C31.3793 8.91844 31.2521 8.73893 31.0427 8.43227C30.8557 8.14057 30.6238 7.90123 30.4593 7.51978C30.018 7.41507 30.0255 7.44498 29.7562 7.86383C24.8572 15.3732 23.8998 27.5423 26.383 36.2558C27.1534 38.9485 27.6395 40.19 28.8138 42.4713C29.1504 43.122 29.5543 43.7203 29.8535 44.401C29.6964 44.8198 29.4944 45.0517 29.2925 45.3883C28.7914 46.2185 27.5797 47.1759 26.7644 47.5199C24.8647 48.3202 23.5857 46.944 22.5834 46.0614C22.6881 44.588 22.9724 44.9245 22.8976 42.0898C22.8228 39.2252 21.6635 33.5707 20.923 31.0427C20.1451 28.4099 18.9783 25.9267 17.6619 23.9746C17.3029 23.4435 15.5004 20.9753 15.1862 20.9155C14.8571 20.8556 14.917 21.0576 14.8796 21.1025C14.6402 21.5587 15.074 27.834 15.1488 28.8811C15.5303 33.9971 16.0913 37.4226 18.38 41.6934C18.8512 42.5685 19.2326 43.3464 19.7786 44.1317C19.9058 44.3187 20.003 44.4982 20.1376 44.6777L21.4615 46.383C21.2296 47.0487 20.8781 47.6545 20.5041 47.849C20.1227 48.8363 18.4024 49.2178 17.3553 49.0382C16.5924 48.9036 15.0292 47.9088 14.543 47.475L14.6926 45.4406C14.6627 43.4511 14.0045 41.5363 13.2715 39.8909C13.0247 39.3374 12.7928 38.6942 12.4488 38.3052C12.5684 38.7465 12.7779 39.1878 12.9349 39.644C13.4734 41.1699 13.7128 42.9649 13.7352 44.6478L13.6455 46.6299C12.2693 46.0016 9.82347 42.8677 8.89602 41.3718C8.66416 40.9978 8.25279 40.1452 8.05832 39.6515C7.25054 37.6321 6.76437 35.0292 6.80177 32.7255C7.12339 32.8527 8.18547 33.5408 8.3949 33.8849C9.03065 34.0494 10.8856 35.8594 11.4091 36.5924L12.2393 37.834C11.9102 36.7196 10.1451 34.2289 9.31487 33.3688C8.88106 32.92 8.49961 32.5984 8.01344 32.2618L7.34777 31.7757C6.85413 31.6111 6.4652 31.1025 6.08374 31.4914C5.56766 32.561 7.76662 40.19 8.26774 41.3793C9.09796 43.3539 10.3994 45.2462 11.7756 46.5925L13.3089 48.036C13.092 49.0083 12.4338 49.6964 11.6036 50.1078ZM48.6643 50.7585H49.0009C48.8288 50.6837 48.6493 50.6239 48.4025 50.6089C48.4923 50.6613 48.5745 50.7136 48.6643 50.7585ZM53.324 50.8333L53.3464 50.8408C53.3464 50.8333 53.3464 50.8333 53.3464 50.8333C53.3389 50.8333 53.3315 50.8333 53.324 50.8333Z" fill="#FEFEFE"/>
<path fill-rule="evenodd" clip-rule="evenodd" d="M25.3732 25.5754C25.3582 31.2523 26.4876 37.3705 29.068 41.9405C29.3672 42.479 29.8534 43.2195 30.0927 43.743C31.1099 42.7184 32.8601 38.126 33.3987 36.1738C34.2364 33.1372 34.715 29.6069 34.745 26.1289C34.7749 22.4864 34.2962 19.173 33.4959 15.9643C32.89 13.541 31.4166 9.6068 30.1825 8.34277C29.7487 8.91121 29.5692 9.12812 29.1428 9.85362C26.727 13.8701 25.3956 20.5567 25.3732 25.5754Z" fill="#FEFEFE"/>
<path fill-rule="evenodd" clip-rule="evenodd" d="M38.9337 44.5285C38.8738 42.9279 38.4699 42.7858 38.6644 39.3901C38.7766 37.4155 39.2702 34.0947 39.8237 32.2622C40.2351 30.9084 40.998 28.8964 41.6562 27.6997C42.1124 26.8919 41.6861 27.0565 42.1423 27.0415C42.3518 27.4978 41.9703 27.7446 41.6263 28.5823C41.4019 29.1358 41.2074 29.7267 41.0279 30.3549C40.4295 32.4866 40.5417 32.0303 40.1678 34.2817C39.9359 35.6803 39.7863 37.0266 39.6741 38.5823C39.6218 39.2854 39.5694 42.165 39.6741 42.8755C39.7863 43.5637 39.4797 43.242 39.9509 43.3318C40.1005 43.0476 41.5215 41.0805 42.3219 39.5696C42.98 38.328 43.713 36.5778 44.087 34.9249C44.8424 31.604 44.9097 26.0468 44.9023 22.3818C43.6981 23.1747 41.5664 27.0191 40.7586 28.8216C40.3847 29.6668 40.0481 30.5494 39.7788 31.4469C39.188 33.3991 38.8514 35.5232 38.612 37.6923C38.4325 39.3826 38.0885 43.4889 38.6868 44.8501C38.8589 44.723 38.8439 44.7903 38.9337 44.5285Z" fill="#FEFEFE"/>
<path fill-rule="evenodd" clip-rule="evenodd" d="M22.1197 42.4188C22.5385 39.2101 21.9178 34.513 20.9604 31.8728C20.2947 30.0328 19.0382 27.8787 18.0135 26.2931C17.8489 26.0388 17.1533 24.7374 16.9065 24.6925C16.5849 24.5055 16.5999 24.7897 16.727 24.4756C16.5699 24.6701 16.5101 24.4382 16.5625 25.246C16.5774 25.4778 16.6073 25.7621 16.6223 26.0238L17.0112 30.0927C17.0785 30.4442 17.2057 30.8182 17.273 31.3268C17.4076 32.3589 17.4899 32.1495 17.6769 33.1144C17.6993 33.234 17.6919 33.234 17.7218 33.3836C17.819 33.8922 17.7143 33.3911 17.7592 33.5482L18.2079 34.8795C18.4548 35.3133 18.4024 35.433 18.5969 35.9416C18.6044 35.964 18.6118 35.9865 18.6193 36.0089L20.1975 39.4345C20.2723 39.5841 20.362 39.7561 20.4368 39.9132C20.6537 40.3395 20.7136 40.4293 20.9604 40.8032C21.2072 41.1623 21.1698 41.3567 21.4316 41.7307C21.641 42.0299 21.8878 42.359 22.1197 42.4188Z" fill="#FEFEFE"/>
<path fill-rule="evenodd" clip-rule="evenodd" d="M51.4392 33.9595C51.2223 34.4681 50.9306 34.6925 50.6688 35.0889C50.4594 35.4105 50.1303 35.9116 49.9957 36.2482C49.5693 37.3028 49.2552 37.8862 48.9111 38.9558C48.2529 41.0051 47.879 42.531 47.9089 44.7374C47.9239 45.7396 48.0435 45.5377 48.1782 45.6349C48.7915 45.1263 49.4571 44.6327 49.9209 44.0642C50.1976 43.7202 50.3921 43.4509 50.6763 43.1218C50.968 42.7853 51.1924 42.329 51.4317 42.1121C51.7982 40.9229 52.2245 40.9004 52.778 37.7067C53.0024 36.4128 53.5185 33.765 53.5409 32.5234C53.0473 32.7777 51.6411 33.5332 51.4392 33.9595Z" fill="#FEFEFE"/>
<path fill-rule="evenodd" clip-rule="evenodd" d="M22.1201 42.4186C21.8882 42.3588 21.6414 42.0297 21.432 41.7305C21.1702 41.3566 21.2076 41.1621 20.9608 40.8031C20.714 40.4291 20.6541 40.3393 20.4372 39.913C20.3624 39.7559 20.2727 39.5839 20.1979 39.4343L18.6197 36.0087C18.6122 35.9863 18.6048 35.9639 18.5973 35.9414C18.4028 35.4328 18.4552 35.3132 18.2084 34.8793L17.7596 33.548C17.7147 33.3909 17.8194 33.8921 17.7222 33.3835C17.6923 33.2339 17.6998 33.2339 17.6773 33.1142C17.4903 32.1493 17.4081 32.3588 17.2734 31.3266C17.2061 30.818 17.079 30.444 17.0116 30.0925L16.6227 26.0237C16.6078 25.7619 16.5778 25.4777 16.5629 25.2458C16.5105 24.438 16.5704 24.6699 16.7274 24.4754C16.6003 24.7896 16.5853 24.5053 16.9069 24.6923C16.7424 24.1613 16.144 23.3161 15.8224 22.8449C15.598 22.5083 15.6205 22.441 15.3138 22.3662C15.1418 30.3244 15.8149 34.3259 18.9787 40.6086C19.5547 41.753 20.2502 42.8674 20.9608 43.8696C21.1029 44.0716 21.1777 44.2062 21.3198 44.4156L21.8135 44.9018L22.1201 42.4186Z" fill="#FEFEFE"/>
<path fill-rule="evenodd" clip-rule="evenodd" d="M38.9331 44.5286C39.2921 44.3341 39.7409 43.7208 39.9503 43.3319C39.4791 43.2421 39.7858 43.5637 39.6736 42.8756C39.5689 42.1651 39.6212 39.2855 39.6736 38.5824C39.7858 37.0267 39.9353 35.6804 40.1672 34.2817C40.5412 32.0304 40.429 32.4866 41.0273 30.355C41.2069 29.7267 41.4013 29.1358 41.6257 28.5824C41.9698 27.7447 42.3512 27.4978 42.1418 27.0416C41.6855 27.0566 42.1119 26.892 41.6556 27.6998C40.9974 28.8965 40.2345 30.9085 39.8232 32.2623C39.2697 34.0947 38.776 37.4156 38.6638 39.3902C38.4694 42.7859 38.8733 42.928 38.9331 44.5286Z" fill="#FEFEFE"/>
<path fill-rule="evenodd" clip-rule="evenodd" d="M48.1781 45.6354C48.0435 45.5382 47.9238 45.7401 47.9089 44.7379C47.879 42.5314 48.2529 41.0056 48.9111 38.9562C49.2552 37.8867 49.5693 37.3033 49.9957 36.2487C50.1303 35.9121 50.4594 35.411 50.6688 35.0894C50.9306 34.6929 51.2223 34.4686 51.4392 33.96C49.4571 34.9323 47.5274 39.7865 46.9964 42.4043C46.8094 43.3616 46.5027 45.3512 46.7346 46.3833C46.8094 46.6975 46.7795 46.5703 46.8318 46.69C47.0338 46.5853 48.0734 45.77 48.1781 45.6354Z" fill="#FEFEFE"/>
<path fill-rule="evenodd" clip-rule="evenodd" d="M25.3732 25.5754C25.3582 31.2523 26.4876 37.3705 29.068 41.9405C29.3672 42.479 29.8534 43.2195 30.0927 43.743C31.1099 42.7184 32.8601 38.126 33.3987 36.1738C34.2364 33.1372 34.715 29.6069 34.745 26.1289C34.7749 22.4864 34.2962 19.173 33.4959 15.9643C32.89 13.541 31.4166 9.6068 30.1825 8.34277C29.7487 8.91121 29.5692 9.12812 29.1428 9.85362C26.727 13.8701 25.3956 20.5567 25.3732 25.5754Z" fill="#FEFEFE"/>
<path fill-rule="evenodd" clip-rule="evenodd" d="M38.9337 44.5285C38.8738 42.9279 38.4699 42.7858 38.6644 39.3901C38.7766 37.4155 39.2702 34.0947 39.8237 32.2622C40.2351 30.9084 40.998 28.8964 41.6562 27.6997C42.1124 26.8919 41.6861 27.0565 42.1423 27.0415C42.3518 27.4978 41.9703 27.7446 41.6263 28.5823C41.4019 29.1358 41.2074 29.7267 41.0279 30.3549C40.4295 32.4866 40.5417 32.0303 40.1678 34.2817C39.9359 35.6803 39.7863 37.0266 39.6741 38.5823C39.6218 39.2854 39.5694 42.165 39.6741 42.8755C39.7863 43.5637 39.4797 43.242 39.9509 43.3318C40.1005 43.0476 41.5215 41.0805 42.3219 39.5696C42.98 38.328 43.713 36.5778 44.087 34.9249C44.8424 31.604 44.9097 26.0468 44.9023 22.3818C43.6981 23.1747 41.5664 27.0191 40.7586 28.8216C40.3847 29.6668 40.0481 30.5494 39.7788 31.4469C39.188 33.3991 38.8514 35.5232 38.612 37.6923C38.4325 39.3826 38.0885 43.4889 38.6868 44.8501C38.8589 44.723 38.8439 44.7903 38.9337 44.5285Z" fill="#FEFEFE"/>
<path fill-rule="evenodd" clip-rule="evenodd" d="M22.1197 42.4188C22.5385 39.2101 21.9178 34.513 20.9604 31.8728C20.2947 30.0328 19.0382 27.8787 18.0135 26.2931C17.8489 26.0388 17.1533 24.7374 16.9065 24.6925C16.5849 24.5055 16.5999 24.7897 16.727 24.4756C16.5699 24.6701 16.5101 24.4382 16.5625 25.246C16.5774 25.4778 16.6073 25.7621 16.6223 26.0238L17.0112 30.0927C17.0785 30.4442 17.2057 30.8182 17.273 31.3268C17.4076 32.3589 17.4899 32.1495 17.6769 33.1144C17.6993 33.234 17.6919 33.234 17.7218 33.3836C17.819 33.8922 17.7143 33.3911 17.7592 33.5482L18.2079 34.8795C18.4548 35.3133 18.4024 35.433 18.5969 35.9416C18.6044 35.964 18.6118 35.9865 18.6193 36.0089L20.1975 39.4345C20.2723 39.5841 20.362 39.7561 20.4368 39.9132C20.6537 40.3395 20.7136 40.4293 20.9604 40.8032C21.2072 41.1623 21.1698 41.3567 21.4316 41.7307C21.641 42.0299 21.8878 42.359 22.1197 42.4188Z" fill="#FEFEFE"/>
<path fill-rule="evenodd" clip-rule="evenodd" d="M51.4392 33.9595C51.2223 34.4681 50.9306 34.6925 50.6688 35.0889C50.4594 35.4105 50.1303 35.9116 49.9957 36.2482C49.5693 37.3028 49.2552 37.8862 48.9111 38.9558C48.2529 41.0051 47.879 42.531 47.9089 44.7374C47.9239 45.7396 48.0435 45.5377 48.1782 45.6349C48.7915 45.1263 49.4571 44.6327 49.9209 44.0642C50.1976 43.7202 50.3921 43.4509 50.6763 43.1218C50.968 42.7853 51.1924 42.329 51.4317 42.1121C51.7982 40.9229 52.2245 40.9004 52.778 37.7067C53.0024 36.4128 53.5185 33.765 53.5409 32.5234C53.0473 32.7777 51.6411 33.5332 51.4392 33.9595Z" fill="#FEFEFE"/>
<path fill-rule="evenodd" clip-rule="evenodd" d="M22.1201 42.4186C21.8882 42.3588 21.6414 42.0297 21.432 41.7305C21.1702 41.3566 21.2076 41.1621 20.9608 40.8031C20.714 40.4291 20.6541 40.3393 20.4372 39.913C20.3624 39.7559 20.2727 39.5839 20.1979 39.4343L18.6197 36.0087C18.6122 35.9863 18.6048 35.9639 18.5973 35.9414C18.4028 35.4328 18.4552 35.3132 18.2084 34.8793L17.7596 33.548C17.7147 33.3909 17.8194 33.8921 17.7222 33.3835C17.6923 33.2339 17.6998 33.2339 17.6773 33.1142C17.4903 32.1493 17.4081 32.3588 17.2734 31.3266C17.2061 30.818 17.079 30.444 17.0116 30.0925L16.6227 26.0237C16.6078 25.7619 16.5778 25.4777 16.5629 25.2458C16.5105 24.438 16.5704 24.6699 16.7274 24.4754C16.6003 24.7896 16.5853 24.5053 16.9069 24.6923C16.7424 24.1613 16.144 23.3161 15.8224 22.8449C15.598 22.5083 15.6205 22.441 15.3138 22.3662C15.1418 30.3244 15.8149 34.3259 18.9787 40.6086C19.5547 41.753 20.2502 42.8674 20.9608 43.8696C21.1029 44.0716 21.1777 44.2062 21.3198 44.4156L21.8135 44.9018L22.1201 42.4186Z" fill="#FEFEFE"/>
<path fill-rule="evenodd" clip-rule="evenodd" d="M38.9331 44.5286C39.2921 44.3341 39.7409 43.7208 39.9503 43.3319C39.4791 43.2421 39.7858 43.5637 39.6736 42.8756C39.5689 42.1651 39.6212 39.2855 39.6736 38.5824C39.7858 37.0267 39.9353 35.6804 40.1672 34.2817C40.5412 32.0304 40.429 32.4866 41.0273 30.355C41.2069 29.7267 41.4013 29.1358 41.6257 28.5824C41.9698 27.7447 42.3512 27.4978 42.1418 27.0416C41.6855 27.0566 42.1119 26.892 41.6556 27.6998C40.9974 28.8965 40.2345 30.9085 39.8232 32.2623C39.2697 34.0947 38.776 37.4156 38.6638 39.3902C38.4694 42.7859 38.8733 42.928 38.9331 44.5286Z" fill="#FEFEFE"/>
<path fill-rule="evenodd" clip-rule="evenodd" d="M48.1781 45.6354C48.0435 45.5382 47.9238 45.7401 47.9089 44.7379C47.879 42.5314 48.2529 41.0056 48.9111 38.9562C49.2552 37.8867 49.5693 37.3033 49.9957 36.2487C50.1303 35.9121 50.4594 35.411 50.6688 35.0894C50.9306 34.6929 51.2223 34.4686 51.4392 33.96C49.4571 34.9323 47.5274 39.7865 46.9964 42.4043C46.8094 43.3616 46.5027 45.3512 46.7346 46.3833C46.8094 46.6975 46.7795 46.5703 46.8318 46.69C47.0338 46.5853 48.0734 45.77 48.1781 45.6354Z" fill="#FEFEFE"/>
<path fill-rule="evenodd" clip-rule="evenodd" d="M11.6036 50.1078L13.2341 50.1377C13.5258 49.7488 13.7951 49.2477 14.1616 48.5296C15.4779 49.2477 16.8018 50.3771 18.6642 50.0181C20.4144 49.6815 21.6036 48.41 22.1347 46.8318C23.294 47.8116 24.6926 48.9859 26.6523 48.3726C28.1855 47.8939 29.4944 46.2484 30.1526 45.1115C30.3621 45.4257 30.6388 45.7548 30.8931 46.0614C31.671 47.0113 32.6358 47.7667 33.7727 48.1931C36.3307 49.1654 37.5349 46.6299 38.395 46.6598C38.5895 46.9515 38.6867 47.2955 39.1205 47.9313C39.3823 48.3127 39.659 48.6343 40.0854 48.9335C42.0524 50.3172 43.7503 49.6366 45.6052 48.3726C45.9418 48.1407 45.8595 48.0884 46.2484 48.2005C46.6224 48.3127 46.5925 48.2978 46.772 48.6568C47.0712 49.2477 47.1609 49.5618 47.692 49.9283C47.4751 49.5768 46.9515 49.0981 46.7271 48.2529C47.2357 47.6321 47.8266 47.4676 49.3225 45.5154C50.1452 44.4384 50.3247 44.012 50.938 43.0173C51.125 42.7181 51.3345 42.4788 51.4317 42.1123C52.03 41.469 53.2791 38.2977 53.511 37.5049C53.7802 36.5775 53.9822 35.8071 54.1467 34.7824C54.2215 34.2738 54.4459 32.2917 54.3487 31.7607C54.1617 30.8108 52.8154 32.2169 52.4788 32.4862C51.7458 33.0771 49.9283 34.7375 49.3898 35.478L48.7017 36.3755C48.4848 36.6971 48.2978 36.9814 48.0659 37.3479C46.8468 39.2775 45.8071 42.0599 45.665 44.7301C45.5828 46.1886 45.9044 46.8468 45.9343 47.9238C43.3614 49.9956 40.4219 50.3172 38.7615 46.6074C39.0831 45.7996 41.0352 44.947 43.9672 35.7846C44.573 33.9148 45.1564 31.11 45.4332 29.0157C45.6501 27.4451 45.8969 23.0247 45.5902 21.3044C45.3883 20.1451 44.6777 21.5138 44.5655 21.656C44.2664 22.0449 44.0195 22.4937 43.7353 22.9349C43.1445 23.8773 42.6957 24.6029 42.1422 25.5752C40.5715 28.3052 38.9784 30.8856 38.2604 34.4084L37.6396 38.0285C36.8692 43.9746 37.8116 44.8198 37.8789 46.2708C37.6022 46.5027 37.5947 46.5775 37.3254 46.6523C36.8318 47.6321 34.947 48.2005 33.3987 47.3479C32.4563 46.8318 30.9679 45.5005 30.6538 44.401C30.923 43.84 31.3493 43.2192 31.6859 42.6358C34.3561 37.9836 35.6052 31.7457 35.5902 25.9043C35.5752 19.5916 34.2439 14.2887 31.5887 9.30737C31.3793 8.91844 31.2521 8.73893 31.0427 8.43227C30.8557 8.14057 30.6238 7.90123 30.4593 7.51978C30.018 7.41507 30.0255 7.44498 29.7562 7.86383C24.8572 15.3732 23.8998 27.5423 26.383 36.2558C27.1534 38.9485 27.6395 40.19 28.8138 42.4713C29.1504 43.122 29.5543 43.7203 29.8535 44.401C29.6964 44.8198 29.4944 45.0517 29.2925 45.3883C28.7914 46.2185 27.5797 47.1759 26.7644 47.5199C24.8647 48.3202 23.5857 46.944 22.5834 46.0614C22.6881 44.588 22.9724 44.9245 22.8976 42.0898C22.8228 39.2252 21.6635 33.5707 20.923 31.0427C20.1451 28.4099 18.9783 25.9267 17.6619 23.9746C17.3029 23.4435 15.5004 20.9753 15.1862 20.9155C14.8571 20.8556 14.917 21.0576 14.8796 21.1025C14.6402 21.5587 15.074 27.834 15.1488 28.8811C15.5303 33.9971 16.0913 37.4226 18.38 41.6934C18.8512 42.5685 19.2326 43.3464 19.7786 44.1317C19.9058 44.3187 20.003 44.4982 20.1376 44.6777L21.4615 46.383C21.2296 47.0487 20.8781 47.6545 20.5041 47.849C20.1227 48.8363 18.4024 49.2178 17.3553 49.0382C16.5924 48.9036 15.0292 47.9088 14.543 47.475L14.6926 45.4406C14.6627 43.4511 14.0045 41.5363 13.2715 39.8909C13.0247 39.3374 12.7928 38.6942 12.4488 38.3052C12.5684 38.7465 12.7779 39.1878 12.9349 39.644C13.4734 41.1699 13.7128 42.9649 13.7352 44.6478L13.6455 46.6299C12.2693 46.0016 9.82347 42.8677 8.89602 41.3718C8.66416 40.9978 8.25279 40.1452 8.05832 39.6515C7.25054 37.6321 6.76437 35.0292 6.80177 32.7255C7.12339 32.8527 8.18547 33.5408 8.3949 33.8849C9.03065 34.0494 10.8856 35.8594 11.4091 36.5924L12.2393 37.834C11.9102 36.7196 10.1451 34.2289 9.31487 33.3688C8.88106 32.92 8.49961 32.5984 8.01344 32.2618L7.34777 31.7757C6.85413 31.6111 6.4652 31.1025 6.08374 31.4914C5.56766 32.561 7.76662 40.19 8.26774 41.3793C9.09796 43.3539 10.3994 45.2462 11.7756 46.5925L13.3089 48.036C13.092 49.0083 12.4338 49.6964 11.6036 50.1078ZM48.6643 50.7585H49.0009C48.8288 50.6837 48.6493 50.6239 48.4025 50.6089C48.4923 50.6613 48.5745 50.7136 48.6643 50.7585ZM53.324 50.8333L53.3464 50.8408C53.3464 50.8333 53.3464 50.8333 53.3464 50.8333C53.3389 50.8333 53.3315 50.8333 53.324 50.8333Z" fill="#FEFEFE"/>
<path fill-rule="evenodd" clip-rule="evenodd" d="M25.3732 25.5754C25.3582 31.2523 26.4876 37.3705 29.068 41.9405C29.3672 42.479 29.8534 43.2195 30.0927 43.743C31.1099 42.7184 32.8601 38.126 33.3987 36.1738C34.2364 33.1372 34.715 29.6069 34.745 26.1289C34.7749 22.4864 34.2962 19.173 33.4959 15.9643C32.89 13.541 31.4166 9.6068 30.1825 8.34277C29.7487 8.91121 29.5692 9.12812 29.1428 9.85362C26.727 13.8701 25.3956 20.5567 25.3732 25.5754Z" fill="#FEFEFE"/>
<path fill-rule="evenodd" clip-rule="evenodd" d="M38.9337 44.5285C38.8738 42.9279 38.4699 42.7858 38.6644 39.3901C38.7766 37.4155 39.2702 34.0947 39.8237 32.2622C40.2351 30.9084 40.998 28.8964 41.6562 27.6997C42.1124 26.8919 41.6861 27.0565 42.1423 27.0415C42.3518 27.4978 41.9703 27.7446 41.6263 28.5823C41.4019 29.1358 41.2074 29.7267 41.0279 30.3549C40.4295 32.4866 40.5417 32.0303 40.1678 34.2817C39.9359 35.6803 39.7863 37.0266 39.6741 38.5823C39.6218 39.2854 39.5694 42.165 39.6741 42.8755C39.7863 43.5637 39.4797 43.242 39.9509 43.3318C40.1005 43.0476 41.5215 41.0805 42.3219 39.5696C42.98 38.328 43.713 36.5778 44.087 34.9249C44.8424 31.604 44.9097 26.0468 44.9023 22.3818C43.6981 23.1747 41.5664 27.0191 40.7586 28.8216C40.3847 29.6668 40.0481 30.5494 39.7788 31.4469C39.188 33.3991 38.8514 35.5232 38.612 37.6923C38.4325 39.3826 38.0885 43.4889 38.6868 44.8501C38.8589 44.723 38.8439 44.7903 38.9337 44.5285Z" fill="#FEFEFE"/>
<path fill-rule="evenodd" clip-rule="evenodd" d="M22.1197 42.4188C22.5385 39.2101 21.9178 34.513 20.9604 31.8728C20.2947 30.0328 19.0382 27.8787 18.0135 26.2931C17.8489 26.0388 17.1533 24.7374 16.9065 24.6925C16.5849 24.5055 16.5999 24.7897 16.727 24.4756C16.5699 24.6701 16.5101 24.4382 16.5625 25.246C16.5774 25.4778 16.6073 25.7621 16.6223 26.0238L17.0112 30.0927C17.0785 30.4442 17.2057 30.8182 17.273 31.3268C17.4076 32.3589 17.4899 32.1495 17.6769 33.1144C17.6993 33.234 17.6919 33.234 17.7218 33.3836C17.819 33.8922 17.7143 33.3911 17.7592 33.5482L18.2079 34.8795C18.4548 35.3133 18.4024 35.433 18.5969 35.9416C18.6044 35.964 18.6118 35.9865 18.6193 36.0089L20.1975 39.4345C20.2723 39.5841 20.362 39.7561 20.4368 39.9132C20.6537 40.3395 20.7136 40.4293 20.9604 40.8032C21.2072 41.1623 21.1698 41.3567 21.4316 41.7307C21.641 42.0299 21.8878 42.359 22.1197 42.4188Z" fill="#FEFEFE"/>
<path fill-rule="evenodd" clip-rule="evenodd" d="M51.4392 33.9595C51.2223 34.4681 50.9306 34.6925 50.6688 35.0889C50.4594 35.4105 50.1303 35.9116 49.9957 36.2482C49.5693 37.3028 49.2552 37.8862 48.9111 38.9558C48.2529 41.0051 47.879 42.531 47.9089 44.7374C47.9239 45.7396 48.0435 45.5377 48.1782 45.6349C48.7915 45.1263 49.4571 44.6327 49.9209 44.0642C50.1976 43.7202 50.3921 43.4509 50.6763 43.1218C50.968 42.7853 51.1924 42.329 51.4317 42.1121C51.7982 40.9229 52.2245 40.9004 52.778 37.7067C53.0024 36.4128 53.5185 33.765 53.5409 32.5234C53.0473 32.7777 51.6411 33.5332 51.4392 33.9595Z" fill="#FEFEFE"/>
<path fill-rule="evenodd" clip-rule="evenodd" d="M48.1781 45.6354C48.0435 45.5382 47.9238 45.7401 47.9089 44.7379C47.879 42.5314 48.2529 41.0056 48.9111 38.9562C49.2552 37.8867 49.5693 37.3033 49.9957 36.2487C50.1303 35.9121 50.4594 35.411 50.6688 35.0894C50.9306 34.6929 51.2223 34.4686 51.4392 33.96C49.4571 34.9323 47.5274 39.7865 46.9964 42.4043C46.8094 43.3616 46.5027 45.3512 46.7346 46.3833C46.8094 46.6975 46.7795 46.5703 46.8318 46.69C47.0338 46.5853 48.0734 45.77 48.1781 45.6354Z" fill="#FEFEFE"/>
<path fill-rule="evenodd" clip-rule="evenodd" d="M25.3732 25.5754C25.3582 31.2523 26.4876 37.3705 29.068 41.9405C29.3672 42.479 29.8534 43.2195 30.0927 43.743C31.1099 42.7184 32.8601 38.126 33.3987 36.1738C34.2364 33.1372 34.715 29.6069 34.745 26.1289C34.7749 22.4864 34.2962 19.173 33.4959 15.9643C32.89 13.541 31.4166 9.6068 30.1825 8.34277C29.7487 8.91121 29.5692 9.12812 29.1428 9.85362C26.727 13.8701 25.3956 20.5567 25.3732 25.5754Z" fill="#FEFEFE"/>
<path fill-rule="evenodd" clip-rule="evenodd" d="M22.1197 42.4188C22.5385 39.2101 21.9178 34.513 20.9604 31.8728C20.2947 30.0328 19.0382 27.8787 18.0135 26.2931C17.8489 26.0388 17.1533 24.7374 16.9065 24.6925C16.5849 24.5055 16.5999 24.7897 16.727 24.4756C16.5699 24.6701 16.5101 24.4382 16.5625 25.246C16.5774 25.4778 16.6073 25.7621 16.6223 26.0238L17.0112 30.0927C17.0785 30.4442 17.2057 30.8182 17.273 31.3268C17.4076 32.3589 17.4899 32.1495 17.6769 33.1144C17.6993 33.234 17.6919 33.234 17.7218 33.3836C17.819 33.8922 17.7143 33.3911 17.7592 33.5482L18.2079 34.8795C18.4548 35.3133 18.4024 35.433 18.5969 35.9416C18.6044 35.964 18.6118 35.9865 18.6193 36.0089L20.1975 39.4345C20.2723 39.5841 20.362 39.7561 20.4368 39.9132C20.6537 40.3395 20.7136 40.4293 20.9604 40.8032C21.2072 41.1623 21.1698 41.3567 21.4316 41.7307C21.641 42.0299 21.8878 42.359 22.1197 42.4188Z" fill="#FEFEFE"/>
<path fill-rule="evenodd" clip-rule="evenodd" d="M51.4392 33.9595C51.2223 34.4681 50.9306 34.6925 50.6688 35.0889C50.4594 35.4105 50.1303 35.9116 49.9957 36.2482C49.5693 37.3028 49.2552 37.8862 48.9111 38.9558C48.2529 41.0051 47.879 42.531 47.9089 44.7374C47.9239 45.7396 48.0435 45.5377 48.1782 45.6349C48.7915 45.1263 49.4571 44.6327 49.9209 44.0642C50.1976 43.7202 50.3921 43.4509 50.6763 43.1218C50.968 42.7853 51.1924 42.329 51.4317 42.1121C51.7982 40.9229 52.2245 40.9004 52.778 37.7067C53.0024 36.4128 53.5185 33.765 53.5409 32.5234C53.0473 32.7777 51.6411 33.5332 51.4392 33.9595Z" fill="#FEFEFE"/>
</svg>
