<svg width="196" height="60" viewBox="0 0 196 60" fill="none" xmlns="http://www.w3.org/2000/svg">
<path d="M56.6599 2H6.09126C3.83172 2 2 4.15654 2 6.81677V53.0473C2 55.7075 3.83172 57.8641 6.09126 57.8641H56.6599C58.9194 57.8641 60.7511 55.7075 60.7511 53.0473V6.81677C60.7511 4.15654 58.9194 2 56.6599 2Z" fill="#E7707C" stroke="#E7707C" stroke-width="2.34401" stroke-miterlimit="22.9256"/>
<path d="M91.7981 8.71657V25.7622H84.0419V8.32764L81.7233 8.71657V25.7622H73.9671V8.32764L71.6484 8.71657V26.5401L73.9671 26.1512H94.1242V8.32764L91.7981 8.71657Z" fill="#2B2A29"/>
<path d="M108.073 18.3351C109.165 18.163 110.399 17.5423 110.399 15.6873C110.399 13.3612 107.714 12.5834 105.358 12.5834H99.9355L97.6094 12.9723V26.54L99.9355 26.1511C101.214 26.368 102.508 26.4952 103.81 26.54C108.851 26.54 111.17 25.3732 111.17 22.2767C111.17 20.0927 109.816 18.8661 108.073 18.3351ZM99.9355 12.9723H104.969C106.525 12.9723 108.073 13.7502 108.073 15.6873C108.073 17.2356 107.303 18.0135 105.747 18.0135H99.9355V12.9723ZM103.81 26.1511C102.508 26.1062 101.214 25.9791 99.9355 25.7622V18.4024H105.358C107.303 18.4024 108.851 19.7263 108.851 22.2767C108.844 24.2139 107.684 26.1511 103.81 26.1511Z" fill="#2B2A29"/>
<path d="M120.991 26.1512C118.665 26.1512 115.568 24.214 115.568 19.5618V19.5543C118.792 19.4421 121.604 18.0135 124.865 18.0135H127.064C126.825 16.3082 125.89 14.7824 124.484 13.8026V13.7951C124.446 13.7652 124.402 13.7503 124.364 13.7203C124.282 13.668 124.192 13.6156 124.11 13.5633C124.043 13.5259 123.968 13.481 123.893 13.4436C123.796 13.3987 123.713 13.3538 123.616 13.309C123.541 13.2716 123.467 13.2417 123.384 13.2043C123.295 13.1669 123.197 13.122 123.108 13.0846C123.025 13.0547 122.936 13.0322 122.853 13.0023C122.756 12.9724 122.666 12.935 122.569 12.9126C122.472 12.8826 122.382 12.8602 122.285 12.8378C122.195 12.8153 122.105 12.7929 122.008 12.7704C121.903 12.748 121.799 12.7331 121.694 12.7181C121.604 12.6957 121.522 12.6807 121.432 12.6732C121.305 12.6508 121.178 12.6433 121.051 12.6358C120.976 12.6209 120.909 12.6134 120.834 12.6134C120.632 12.5984 120.422 12.5909 120.213 12.5909C116.346 12.5909 113.242 14.9171 113.242 19.5618C113.242 19.8311 113.257 20.0928 113.272 20.3397C113.601 24.4758 116.563 26.5401 120.213 26.5401C121.829 26.5401 124.095 25.7697 125.254 24.603L124.865 23.8251C124.013 25.1639 122.577 26.024 120.991 26.1512ZM119.443 12.9724C119.607 12.9724 119.772 12.9874 119.936 13.0098C119.981 13.0098 120.026 13.0173 120.071 13.0248C120.213 13.0472 120.348 13.0696 120.482 13.0995C120.52 13.1145 120.557 13.1145 120.594 13.1295C120.767 13.1669 120.939 13.2192 121.103 13.2865C121.14 13.3015 121.178 13.3164 121.215 13.3314C121.357 13.3912 121.492 13.4511 121.627 13.5184C121.672 13.5408 121.716 13.5633 121.761 13.5857C121.933 13.6755 122.098 13.7802 122.262 13.8849L122.277 13.9073C122.434 14.012 122.592 14.1317 122.734 14.2589C122.778 14.2963 122.816 14.3337 122.861 14.3711C122.98 14.4832 123.108 14.6104 123.22 14.745C123.25 14.7675 123.28 14.7974 123.302 14.8273C123.444 14.9918 123.579 15.1639 123.698 15.3434C124.162 16.039 124.491 16.8168 124.656 17.6321C121.492 17.6919 118.732 19.0607 115.576 19.1654C115.636 16.1736 116.473 12.9724 119.443 12.9724Z" fill="#2B2A29"/>
<path d="M139.293 12.9724V16.1512L131.544 25.4332V12.5835L129.218 12.9724V26.5401L131.544 26.1512V26.0465L139.293 16.7645V26.5401L141.619 26.1512V12.5835L139.293 12.9724ZM138.522 8.70911C138.522 8.70911 136.974 9.8759 132.711 9.8759V10.6538C134.782 10.6986 136.862 10.5715 138.911 10.2648L138.522 8.70911Z" fill="#2B2A29"/>
<path d="M154.753 12.9723V17.2356C152.038 17.2356 149.719 18.7913 147.004 18.7913V12.5834L144.678 12.9723V26.54L147.004 26.1511V19.1803C149.719 19.1803 152.038 17.6245 154.753 17.6245V26.54L157.079 26.1511V12.5834L154.753 12.9723Z" fill="#2B2A29"/>
<path d="M171.245 12.9724V14.0868C169.913 13.0696 168.275 12.5386 166.593 12.5834C162.718 12.5834 159.614 14.9096 159.614 19.5618C159.614 24.214 162.718 26.5401 166.593 26.5401C168.275 26.585 169.913 26.0539 171.245 25.0367V26.5401L173.571 26.1512V12.5834L171.245 12.9724ZM167.37 26.1512C165.044 26.1512 161.94 24.214 161.94 19.5618C161.94 16.4653 162.718 12.9724 165.822 12.9724C167.887 13.0771 169.831 13.9821 171.245 15.4929V24.0195C170.355 25.2985 168.926 26.0839 167.37 26.1512Z" fill="#2B2A29"/>
<path d="M186.219 12.9723C185.082 12.6806 183.908 12.546 182.734 12.5834C179.241 12.5834 176.145 13.7502 176.145 16.8467C176.145 19.4869 178.104 20.7136 180.842 21.0277C177.551 21.8654 176.533 24.2663 176.533 26.1511L178.082 26.5401C178.082 24.6029 178.082 21.11 183.115 21.11H186.219V26.5401L188.538 26.1511V12.5834L186.219 12.9723ZM186.219 20.7285H182.734C180.019 20.7285 178.471 19.3972 178.471 16.8467C178.471 14.9095 179.63 12.9723 182.734 12.9723C183.908 12.9349 185.082 13.0696 186.219 13.3613V20.7285Z" fill="#2B2A29"/>
<path d="M76.5774 43.9822L85.4705 36.5177L85.2236 36.2185L73.9671 45.6576V36.2185L71.6484 36.6074V54.431L73.9671 54.0495V46.1662L76.1137 44.3711C81.7681 44.5431 83.6604 51.7533 83.6604 54.431L85.2087 54.0495C85.2087 50.609 82.5759 44.1766 76.5774 43.9822Z" fill="#2B2A29"/>
<path d="M94.1994 40.4818C90.3325 40.4818 87.2285 42.8079 87.2285 47.4527C87.2285 52.1124 90.3325 54.431 94.1994 54.431C98.0812 54.431 101.178 52.1124 101.178 47.4527C101.178 42.8079 98.0812 40.4818 94.1994 40.4818ZM94.9772 54.0495C92.6511 54.0495 89.5546 52.1124 89.5546 47.4527C89.5546 44.3562 90.3325 40.8707 93.429 40.8707C95.7551 40.8707 98.8591 42.8079 98.8591 47.4527C98.8591 50.5566 98.0812 54.0495 94.9772 54.0495Z" fill="#2B2A29"/>
<path d="M110.699 40.4818C109.024 40.4294 107.386 40.9679 106.055 41.9851V40.8707L103.729 41.2596V59.0832L106.055 58.6942V52.9276C107.386 53.9523 109.024 54.4833 110.699 54.431C114.581 54.431 117.678 52.1123 117.678 47.4526C117.678 42.8079 114.581 40.4818 110.699 40.4818ZM111.477 54.0495C109.413 53.9448 107.468 53.0398 106.055 51.5289V43.0023C106.945 41.7234 108.373 40.9305 109.929 40.8707C112.255 40.8707 115.359 42.8079 115.359 47.4526C115.359 50.5566 114.581 54.0495 111.477 54.0495Z" fill="#2B2A29"/>
<path d="M126.705 40.4818C122.831 40.4818 119.734 42.8079 119.734 47.4527C119.734 52.1124 122.831 54.431 126.705 54.431C130.58 54.431 133.684 52.1124 133.684 47.4527C133.684 42.8079 130.58 40.4818 126.705 40.4818ZM127.483 54.0495C125.157 54.0495 122.06 52.1124 122.06 47.4527C122.06 44.3562 122.831 40.8707 125.935 40.8707C128.261 40.8707 131.357 42.8079 131.357 47.4527C131.357 50.5566 130.58 54.0495 127.483 54.0495Z" fill="#2B2A29"/>
<path d="M144.565 40.8707H137.976C137.669 43.7055 137.542 46.5477 137.587 49.3973C137.587 52.8828 136.039 54.0495 134.102 54.0495L134.49 54.431C136.428 54.431 137.976 52.8827 137.976 49.7863C137.939 46.9366 138.058 44.0944 138.312 41.2597H144.565V54.431L146.884 54.0495V40.4818L144.565 40.8707Z" fill="#2B2A29"/>
<path d="M157.184 54.0495C154.858 54.0495 151.762 52.1123 151.762 47.4526V47.4452C154.993 47.333 157.805 45.9044 161.066 45.9044H163.258C163.018 44.2065 162.083 42.6807 160.677 41.6935C160.64 41.6635 160.595 41.6411 160.558 41.6187C160.475 41.5588 160.393 41.5139 160.303 41.4616C160.236 41.4167 160.161 41.3793 160.086 41.3419C159.997 41.2896 159.907 41.2447 159.81 41.1998C159.735 41.1699 159.66 41.1325 159.578 41.0951C159.488 41.0577 159.398 41.0203 159.301 40.9829C159.219 40.953 159.129 40.9231 159.047 40.8931C158.957 40.8632 158.86 40.8333 158.762 40.8034C158.665 40.7735 158.575 40.751 158.486 40.7361C158.388 40.7062 158.299 40.6837 158.201 40.6613C158.097 40.6463 157.992 40.6239 157.887 40.6089C157.805 40.594 157.715 40.579 157.626 40.5641C157.498 40.5491 157.371 40.5416 157.252 40.5267C157.177 40.5192 157.102 40.5117 157.027 40.5042C156.825 40.4893 156.623 40.4893 156.406 40.4893C152.54 40.4893 149.436 42.8079 149.436 47.4601C149.436 47.7219 149.451 47.9837 149.473 48.238C149.795 52.3666 152.756 54.431 156.406 54.431C158.022 54.431 160.288 53.6606 161.448 52.4938L161.066 51.7234C160.206 53.0622 158.77 53.9149 157.184 54.0495ZM155.636 40.8707C155.801 40.8707 155.965 40.8857 156.13 40.9006C156.175 40.9081 156.219 40.9081 156.264 40.9231C156.406 40.938 156.541 40.9679 156.676 40.9979C156.713 41.0053 156.75 41.0128 156.788 41.0203C156.96 41.0652 157.132 41.1175 157.296 41.1848C157.334 41.1998 157.371 41.2148 157.409 41.2297C157.551 41.2821 157.685 41.3419 157.82 41.4167C157.865 41.4391 157.91 41.4541 157.955 41.484C158.127 41.5738 158.291 41.6785 158.456 41.7832L158.478 41.7982C158.628 41.9104 158.785 42.03 158.927 42.1572C158.972 42.1946 159.009 42.232 159.054 42.2694C159.174 42.3816 159.301 42.5087 159.413 42.6359C159.443 42.6658 159.473 42.6957 159.495 42.7256C159.638 42.8902 159.772 43.0622 159.892 43.2417C160.356 43.9373 160.685 44.7077 160.849 45.5304C157.685 45.5828 154.925 46.9515 151.769 47.0562C151.829 44.0644 152.667 40.8707 155.636 40.8707Z" fill="#2B2A29"/>
<path d="M175.875 46.2335C176.967 46.054 178.201 45.4332 178.201 43.5858C178.201 41.2597 175.524 40.4818 173.168 40.4818H167.738L165.419 40.8707V54.431L167.738 54.0495C169.024 54.259 170.318 54.3861 171.619 54.431C176.653 54.431 178.979 53.2717 178.979 50.1677C178.979 47.9837 177.625 46.7646 175.875 46.2335ZM167.738 40.8707H172.779C174.327 40.8707 175.875 41.6486 175.875 43.5858C175.875 45.134 175.105 45.9044 173.557 45.9044H167.738V40.8707ZM171.619 54.0495C170.318 53.9972 169.024 53.87 167.738 53.6606V46.2933H173.168C175.105 46.2933 176.653 47.6247 176.653 50.1677C176.653 52.1124 175.486 54.0495 171.619 54.0495Z" fill="#2B2A29"/>
<path d="M192.674 40.8707V41.9851C191.343 40.9679 189.705 40.4294 188.022 40.4818C184.147 40.4818 181.051 42.8079 181.051 47.4526C181.051 52.1123 184.147 54.431 188.022 54.431C189.705 54.4833 191.343 53.9523 192.674 52.9276V54.431L195 54.0495V40.4818L192.674 40.8707ZM188.799 54.0495C186.473 54.0495 183.369 52.1123 183.369 47.4526C183.369 44.3561 184.147 40.8707 187.251 40.8707C189.316 40.9754 191.26 41.8729 192.674 43.3838V51.9179C191.784 53.1894 190.355 53.9822 188.799 54.0495Z" fill="#2B2A29"/>
<path d="M91.7981 8.71657V25.7622H84.0419V8.32764L81.7233 8.71657V25.7622H73.9671V8.32764L71.6484 8.71657V26.5401L73.9671 26.1512H94.1242V8.32764L91.7981 8.71657Z" stroke="#2B2A29" stroke-width="0.883809" stroke-miterlimit="22.9256"/>
<path d="M108.073 18.3351C109.165 18.163 110.399 17.5423 110.399 15.6873C110.399 13.3612 107.714 12.5834 105.358 12.5834H99.9355L97.6094 12.9723V26.54L99.9355 26.1511C101.214 26.368 102.508 26.4952 103.81 26.54C108.851 26.54 111.17 25.3732 111.17 22.2767C111.17 20.0927 109.816 18.8661 108.073 18.3351ZM99.9355 12.9723H104.969C106.525 12.9723 108.073 13.7502 108.073 15.6873C108.073 17.2356 107.303 18.0135 105.747 18.0135H99.9355V12.9723ZM103.81 26.1511C102.508 26.1062 101.214 25.9791 99.9355 25.7622V18.4024H105.358C107.303 18.4024 108.851 19.7263 108.851 22.2767C108.844 24.2139 107.684 26.1511 103.81 26.1511Z" stroke="#2B2A29" stroke-width="0.883809" stroke-miterlimit="22.9256"/>
<path d="M120.991 26.1512C118.665 26.1512 115.568 24.214 115.568 19.5618V19.5543C118.792 19.4421 121.604 18.0135 124.865 18.0135H127.064C126.825 16.3082 125.89 14.7824 124.484 13.8026V13.7951C124.446 13.7652 124.402 13.7503 124.364 13.7203C124.282 13.668 124.192 13.6156 124.11 13.5633C124.043 13.5259 123.968 13.481 123.893 13.4436C123.796 13.3987 123.713 13.3538 123.616 13.309C123.541 13.2716 123.467 13.2417 123.384 13.2043C123.295 13.1669 123.197 13.122 123.108 13.0846C123.025 13.0547 122.936 13.0322 122.853 13.0023C122.756 12.9724 122.666 12.935 122.569 12.9126C122.472 12.8826 122.382 12.8602 122.285 12.8378C122.195 12.8153 122.105 12.7929 122.008 12.7704C121.903 12.748 121.799 12.7331 121.694 12.7181C121.604 12.6957 121.522 12.6807 121.432 12.6732C121.305 12.6508 121.178 12.6433 121.051 12.6358C120.976 12.6209 120.909 12.6134 120.834 12.6134C120.632 12.5984 120.422 12.5909 120.213 12.5909C116.346 12.5909 113.242 14.9171 113.242 19.5618C113.242 19.8311 113.257 20.0928 113.272 20.3397C113.601 24.4758 116.563 26.5401 120.213 26.5401C121.829 26.5401 124.095 25.7697 125.254 24.603L124.865 23.8251C124.013 25.1639 122.577 26.024 120.991 26.1512ZM119.443 12.9724C119.607 12.9724 119.772 12.9874 119.936 13.0098C119.981 13.0098 120.026 13.0173 120.071 13.0248C120.213 13.0472 120.348 13.0696 120.482 13.0995C120.52 13.1145 120.557 13.1145 120.594 13.1295C120.767 13.1669 120.939 13.2192 121.103 13.2865C121.14 13.3015 121.178 13.3164 121.215 13.3314C121.357 13.3912 121.492 13.4511 121.627 13.5184C121.672 13.5408 121.716 13.5633 121.761 13.5857C121.933 13.6755 122.098 13.7802 122.262 13.8849L122.277 13.9073C122.434 14.012 122.592 14.1317 122.734 14.2589C122.778 14.2963 122.816 14.3337 122.861 14.3711C122.98 14.4832 123.108 14.6104 123.22 14.745C123.25 14.7675 123.28 14.7974 123.302 14.8273C123.444 14.9918 123.579 15.1639 123.698 15.3434C124.162 16.039 124.491 16.8168 124.656 17.6321C121.492 17.6919 118.732 19.0607 115.576 19.1654C115.636 16.1736 116.473 12.9724 119.443 12.9724Z" stroke="#2B2A29" stroke-width="0.883809" stroke-miterlimit="22.9256"/>
<path d="M139.293 12.9724V16.1512L131.544 25.4332V12.5835L129.218 12.9724V26.5401L131.544 26.1512V26.0465L139.293 16.7645V26.5401L141.619 26.1512V12.5835L139.293 12.9724ZM138.522 8.70911C138.522 8.70911 136.974 9.8759 132.711 9.8759V10.6538C134.782 10.6986 136.862 10.5715 138.911 10.2648L138.522 8.70911Z" stroke="#2B2A29" stroke-width="0.883809" stroke-miterlimit="22.9256"/>
<path d="M154.753 12.9723V17.2356C152.038 17.2356 149.719 18.7913 147.004 18.7913V12.5834L144.678 12.9723V26.54L147.004 26.1511V19.1803C149.719 19.1803 152.038 17.6245 154.753 17.6245V26.54L157.079 26.1511V12.5834L154.753 12.9723Z" stroke="#2B2A29" stroke-width="0.883809" stroke-miterlimit="22.9256"/>
<path d="M171.245 12.9724V14.0868C169.913 13.0696 168.275 12.5386 166.593 12.5834C162.718 12.5834 159.614 14.9096 159.614 19.5618C159.614 24.214 162.718 26.5401 166.593 26.5401C168.275 26.585 169.913 26.0539 171.245 25.0367V26.5401L173.571 26.1512V12.5834L171.245 12.9724ZM167.37 26.1512C165.044 26.1512 161.94 24.214 161.94 19.5618C161.94 16.4653 162.718 12.9724 165.822 12.9724C167.887 13.0771 169.831 13.9821 171.245 15.4929V24.0195C170.355 25.2985 168.926 26.0839 167.37 26.1512Z" stroke="#2B2A29" stroke-width="0.883809" stroke-miterlimit="22.9256"/>
<path d="M186.219 12.9723C185.082 12.6806 183.908 12.546 182.734 12.5834C179.241 12.5834 176.145 13.7502 176.145 16.8467C176.145 19.4869 178.104 20.7136 180.842 21.0277C177.551 21.8654 176.533 24.2663 176.533 26.1511L178.082 26.5401C178.082 24.6029 178.082 21.11 183.115 21.11H186.219V26.5401L188.538 26.1511V12.5834L186.219 12.9723ZM186.219 20.7285H182.734C180.019 20.7285 178.471 19.3972 178.471 16.8467C178.471 14.9095 179.63 12.9723 182.734 12.9723C183.908 12.9349 185.082 13.0696 186.219 13.3613V20.7285Z" stroke="#2B2A29" stroke-width="0.883809" stroke-miterlimit="22.9256"/>
<path d="M76.5774 43.9822L85.4705 36.5177L85.2237 36.2185L73.9671 45.6576V36.2185L71.6484 36.6074V54.431L73.9671 54.0495V46.1662L76.1137 44.3711C81.7681 44.5431 83.6604 51.7533 83.6604 54.431L85.2087 54.0495C85.2087 50.609 82.5759 44.1766 76.5774 43.9822Z" stroke="#2B2A29" stroke-width="0.883809" stroke-miterlimit="22.9256"/>
<path d="M94.1994 40.4818C90.3325 40.4818 87.2285 42.8079 87.2285 47.4527C87.2285 52.1124 90.3325 54.431 94.1994 54.431C98.0812 54.431 101.178 52.1124 101.178 47.4527C101.178 42.8079 98.0812 40.4818 94.1994 40.4818ZM94.9772 54.0495C92.6511 54.0495 89.5546 52.1124 89.5546 47.4527C89.5546 44.3562 90.3325 40.8707 93.429 40.8707C95.7551 40.8707 98.8591 42.8079 98.8591 47.4527C98.8591 50.5566 98.0812 54.0495 94.9772 54.0495Z" stroke="#2B2A29" stroke-width="0.883809" stroke-miterlimit="22.9256"/>
<path d="M110.699 40.4818C109.024 40.4294 107.386 40.9679 106.055 41.9851V40.8707L103.729 41.2596V59.0832L106.055 58.6942V52.9276C107.386 53.9523 109.024 54.4833 110.699 54.431C114.581 54.431 117.678 52.1123 117.678 47.4526C117.678 42.8079 114.581 40.4818 110.699 40.4818ZM111.477 54.0495C109.413 53.9448 107.468 53.0398 106.055 51.5289V43.0023C106.945 41.7234 108.373 40.9305 109.929 40.8707C112.255 40.8707 115.359 42.8079 115.359 47.4526C115.359 50.5566 114.581 54.0495 111.477 54.0495Z" stroke="#2B2A29" stroke-width="0.883809" stroke-miterlimit="22.9256"/>
<path d="M126.705 40.4818C122.831 40.4818 119.734 42.8079 119.734 47.4527C119.734 52.1124 122.831 54.431 126.705 54.431C130.58 54.431 133.684 52.1124 133.684 47.4527C133.684 42.8079 130.58 40.4818 126.705 40.4818ZM127.483 54.0495C125.157 54.0495 122.06 52.1124 122.06 47.4527C122.06 44.3562 122.831 40.8707 125.935 40.8707C128.261 40.8707 131.357 42.8079 131.357 47.4527C131.357 50.5566 130.58 54.0495 127.483 54.0495Z" stroke="#2B2A29" stroke-width="0.883809" stroke-miterlimit="22.9256"/>
<path d="M144.565 40.8707H137.976C137.669 43.7055 137.542 46.5477 137.587 49.3973C137.587 52.8828 136.039 54.0495 134.102 54.0495L134.49 54.431C136.428 54.431 137.976 52.8827 137.976 49.7863C137.939 46.9366 138.058 44.0944 138.312 41.2597H144.565V54.431L146.884 54.0495V40.4818L144.565 40.8707Z" stroke="#2B2A29" stroke-width="0.883809" stroke-miterlimit="22.9256"/>
<path d="M157.184 54.0495C154.858 54.0495 151.762 52.1123 151.762 47.4526V47.4452C154.993 47.333 157.805 45.9044 161.066 45.9044H163.258C163.018 44.2065 162.083 42.6807 160.677 41.6935C160.64 41.6635 160.595 41.6411 160.558 41.6187C160.475 41.5588 160.393 41.5139 160.303 41.4616C160.236 41.4167 160.161 41.3793 160.086 41.3419C159.997 41.2896 159.907 41.2447 159.81 41.1998C159.735 41.1699 159.66 41.1325 159.578 41.0951C159.488 41.0577 159.398 41.0203 159.301 40.9829C159.219 40.953 159.129 40.9231 159.047 40.8931C158.957 40.8632 158.86 40.8333 158.762 40.8034C158.665 40.7735 158.575 40.751 158.486 40.7361C158.388 40.7062 158.299 40.6837 158.201 40.6613C158.097 40.6463 157.992 40.6239 157.887 40.6089C157.805 40.594 157.715 40.579 157.626 40.5641C157.498 40.5491 157.371 40.5416 157.252 40.5267C157.177 40.5192 157.102 40.5117 157.027 40.5042C156.825 40.4893 156.623 40.4893 156.406 40.4893C152.54 40.4893 149.436 42.8079 149.436 47.4601C149.436 47.7219 149.451 47.9837 149.473 48.238C149.795 52.3666 152.756 54.431 156.406 54.431C158.022 54.431 160.288 53.6606 161.448 52.4938L161.066 51.7234C160.206 53.0622 158.77 53.9149 157.184 54.0495ZM155.636 40.8707C155.801 40.8707 155.965 40.8857 156.13 40.9006C156.175 40.9081 156.219 40.9081 156.264 40.9231C156.406 40.938 156.541 40.9679 156.676 40.9979C156.713 41.0053 156.75 41.0128 156.788 41.0203C156.96 41.0652 157.132 41.1175 157.296 41.1848C157.334 41.1998 157.371 41.2148 157.409 41.2297C157.551 41.2821 157.685 41.3419 157.82 41.4167C157.865 41.4391 157.91 41.4541 157.955 41.484C158.127 41.5738 158.291 41.6785 158.456 41.7832L158.478 41.7982C158.628 41.9104 158.785 42.03 158.927 42.1572C158.972 42.1946 159.009 42.232 159.054 42.2694C159.174 42.3816 159.301 42.5087 159.413 42.6359C159.443 42.6658 159.473 42.6957 159.495 42.7256C159.638 42.8902 159.772 43.0622 159.892 43.2417C160.356 43.9373 160.685 44.7077 160.849 45.5304C157.685 45.5828 154.925 46.9515 151.769 47.0562C151.829 44.0644 152.667 40.8707 155.636 40.8707Z" stroke="#2B2A29" stroke-width="0.883809" stroke-miterlimit="22.9256"/>
<path d="M175.875 46.2335C176.967 46.054 178.201 45.4332 178.201 43.5858C178.201 41.2597 175.524 40.4818 173.168 40.4818H167.738L165.419 40.8707V54.431L167.738 54.0495C169.024 54.259 170.318 54.3861 171.619 54.431C176.653 54.431 178.979 53.2717 178.979 50.1677C178.979 47.9837 177.625 46.7646 175.875 46.2335ZM167.738 40.8707H172.779C174.327 40.8707 175.875 41.6486 175.875 43.5858C175.875 45.134 175.105 45.9044 173.557 45.9044H167.738V40.8707ZM171.619 54.0495C170.318 53.9972 169.024 53.87 167.738 53.6606V46.2933H173.168C175.105 46.2933 176.653 47.6247 176.653 50.1677C176.653 52.1124 175.486 54.0495 171.619 54.0495Z" stroke="#2B2A29" stroke-width="0.883809" stroke-miterlimit="22.9256"/>
<path d="M192.674 40.8707V41.9851C191.343 40.9679 189.705 40.4294 188.022 40.4818C184.147 40.4818 181.051 42.8079 181.051 47.4526C181.051 52.1123 184.147 54.431 188.022 54.431C189.705 54.4833 191.343 53.9523 192.674 52.9276V54.431L195 54.0495V40.4818L192.674 40.8707ZM188.799 54.0495C186.473 54.0495 183.369 52.1123 183.369 47.4526C183.369 44.3561 184.147 40.8707 187.251 40.8707C189.316 40.9754 191.26 41.8729 192.674 43.3838V51.9179C191.784 53.1894 190.355 53.9822 188.799 54.0495Z" stroke="#2B2A29" stroke-width="0.883809" stroke-miterlimit="22.9256"/>
<path fill-rule="evenodd" clip-rule="evenodd" d="M11.6036 50.1078L13.2341 50.1377C13.5258 49.7488 13.7951 49.2477 14.1616 48.5296C15.4779 49.2477 16.8018 50.3771 18.6642 50.0181C20.4144 49.6815 21.6036 48.41 22.1347 46.8318C23.294 47.8116 24.6926 48.9859 26.6523 48.3726C28.1855 47.8939 29.4944 46.2484 30.1526 45.1115C30.3621 45.4257 30.6388 45.7548 30.8931 46.0614C31.671 47.0113 32.6358 47.7667 33.7727 48.1931C36.3307 49.1654 37.5349 46.6299 38.395 46.6598C38.5895 46.9515 38.6867 47.2955 39.1205 47.9313C39.3823 48.3127 39.659 48.6343 40.0854 48.9335C42.0524 50.3172 43.7503 49.6366 45.6052 48.3726C45.9418 48.1407 45.8595 48.0884 46.2484 48.2005C46.6224 48.3127 46.5925 48.2978 46.772 48.6568C47.0712 49.2477 47.1609 49.5618 47.692 49.9283C47.4751 49.5768 46.9515 49.0981 46.7271 48.2529C47.2357 47.6321 47.8266 47.4676 49.3225 45.5154C50.1452 44.4384 50.3247 44.012 50.938 43.0173C51.125 42.7181 51.3345 42.4788 51.4317 42.1123C52.03 41.469 53.2791 38.2977 53.511 37.5049C53.7802 36.5775 53.9822 35.8071 54.1467 34.7824C54.2215 34.2738 54.4459 32.2917 54.3487 31.7607C54.1617 30.8108 52.8154 32.2169 52.4788 32.4862C51.7458 33.0771 49.9283 34.7375 49.3898 35.478L48.7017 36.3755C48.4848 36.6971 48.2978 36.9814 48.0659 37.3479C46.8468 39.2775 45.8071 42.0599 45.665 44.7301C45.5828 46.1886 45.9044 46.8468 45.9343 47.9238C43.3614 49.9956 40.4219 50.3172 38.7615 46.6074C39.0831 45.7996 41.0352 44.947 43.9672 35.7846C44.573 33.9148 45.1564 31.11 45.4332 29.0157C45.6501 27.4451 45.8969 23.0247 45.5902 21.3044C45.3883 20.1451 44.6777 21.5138 44.5655 21.656C44.2664 22.0449 44.0195 22.4937 43.7353 22.9349C43.1445 23.8773 42.6957 24.6029 42.1422 25.5752C40.5715 28.3052 38.9784 30.8856 38.2604 34.4084L37.6396 38.0285C36.8692 43.9746 37.8116 44.8198 37.8789 46.2708C37.6022 46.5027 37.5947 46.5775 37.3254 46.6523C36.8318 47.6321 34.947 48.2005 33.3987 47.3479C32.4563 46.8318 30.9679 45.5005 30.6538 44.401C30.923 43.84 31.3493 43.2192 31.6859 42.6358C34.3561 37.9836 35.6052 31.7457 35.5902 25.9043C35.5752 19.5916 34.2439 14.2887 31.5887 9.30737C31.3793 8.91844 31.2521 8.73893 31.0427 8.43227C30.8557 8.14057 30.6238 7.90123 30.4593 7.51978C30.018 7.41507 30.0255 7.44498 29.7562 7.86383C24.8572 15.3732 23.8998 27.5423 26.383 36.2558C27.1534 38.9485 27.6395 40.19 28.8138 42.4713C29.1504 43.122 29.5543 43.7203 29.8535 44.401C29.6964 44.8198 29.4944 45.0517 29.2925 45.3883C28.7914 46.2185 27.5797 47.1759 26.7644 47.5199C24.8647 48.3202 23.5857 46.944 22.5834 46.0614C22.6881 44.588 22.9724 44.9245 22.8976 42.0898C22.8228 39.2252 21.6635 33.5707 20.923 31.0427C20.1451 28.4099 18.9783 25.9267 17.6619 23.9746C17.3029 23.4435 15.5004 20.9753 15.1862 20.9155C14.8571 20.8556 14.917 21.0576 14.8796 21.1025C14.6402 21.5587 15.074 27.834 15.1488 28.8811C15.5303 33.9971 16.0913 37.4226 18.38 41.6934C18.8512 42.5685 19.2326 43.3464 19.7786 44.1317C19.9058 44.3187 20.003 44.4982 20.1376 44.6777L21.4615 46.383C21.2296 47.0487 20.8781 47.6545 20.5041 47.849C20.1227 48.8363 18.4024 49.2178 17.3553 49.0382C16.5924 48.9036 15.0292 47.9088 14.543 47.475L14.6926 45.4406C14.6627 43.4511 14.0045 41.5363 13.2715 39.8909C13.0247 39.3374 12.7928 38.6942 12.4488 38.3052C12.5684 38.7465 12.7779 39.1878 12.9349 39.644C13.4734 41.1699 13.7128 42.9649 13.7352 44.6478L13.6455 46.6299C12.2693 46.0016 9.82347 42.8677 8.89602 41.3718C8.66416 40.9978 8.25279 40.1452 8.05832 39.6515C7.25054 37.6321 6.76437 35.0292 6.80177 32.7255C7.12339 32.8527 8.18547 33.5408 8.3949 33.8849C9.03065 34.0494 10.8856 35.8594 11.4091 36.5924L12.2393 37.834C11.9102 36.7196 10.1451 34.2289 9.31487 33.3688C8.88106 32.92 8.49961 32.5984 8.01344 32.2618L7.34777 31.7757C6.85413 31.6111 6.4652 31.1025 6.08374 31.4914C5.56766 32.561 7.76662 40.19 8.26774 41.3793C9.09796 43.3539 10.3994 45.2462 11.7756 46.5925L13.3089 48.036C13.092 49.0083 12.4338 49.6964 11.6036 50.1078ZM48.6643 50.7585H49.0009C48.8288 50.6837 48.6493 50.6239 48.4025 50.6089C48.4923 50.6613 48.5745 50.7136 48.6643 50.7585ZM53.324 50.8333L53.3464 50.8408C53.3464 50.8333 53.3464 50.8333 53.3464 50.8333C53.3389 50.8333 53.3315 50.8333 53.324 50.8333Z" fill="#FEFEFE"/>
<path fill-rule="evenodd" clip-rule="evenodd" d="M25.3732 25.5752C25.3582 31.2521 26.4876 37.3703 29.068 41.9402C29.3672 42.4788 29.8534 43.2192 30.0927 43.7428C31.1099 42.7181 32.8601 38.1257 33.3987 36.1736C34.2364 33.1369 34.715 29.6066 34.745 26.1287C34.7749 22.4862 34.2962 19.1728 33.4959 15.9641C32.89 13.5408 31.4166 9.60656 30.1825 8.34253C29.7487 8.91097 29.5692 9.12787 29.1428 9.85338C26.727 13.8698 25.3956 20.5565 25.3732 25.5752Z" fill="#FEFEFE"/>
<path fill-rule="evenodd" clip-rule="evenodd" d="M38.9337 44.5281C38.8738 42.9275 38.4699 42.7854 38.6644 39.3898C38.7766 37.4152 39.2702 34.0943 39.8237 32.2618C40.2351 30.9081 40.998 28.8961 41.6562 27.6994C42.1124 26.8916 41.6861 27.0561 42.1423 27.0412C42.3518 27.4974 41.9703 27.7442 41.6263 28.5819C41.4019 29.1354 41.2074 29.7263 41.0279 30.3546C40.4295 32.4862 40.5417 32.03 40.1678 34.2813C39.9359 35.6799 39.7863 37.0262 39.6741 38.582C39.6218 39.285 39.5694 42.1646 39.6741 42.8752C39.7863 43.5633 39.4797 43.2417 39.9509 43.3314C40.1005 43.0472 41.5215 41.0801 42.3219 39.5693C42.98 38.3277 43.713 36.5775 44.087 34.9245C44.8424 31.6036 44.9097 26.0464 44.9023 22.3815C43.6981 23.1743 41.5664 27.0187 40.7586 28.8213C40.3847 29.6665 40.0481 30.549 39.7788 31.4466C39.188 33.3987 38.8514 35.5229 38.612 37.6919C38.4325 39.3823 38.0885 43.4885 38.6868 44.8498C38.8589 44.7226 38.8439 44.7899 38.9337 44.5281Z" fill="#FEFEFE"/>
<path fill-rule="evenodd" clip-rule="evenodd" d="M22.1197 42.4189C22.5385 39.2102 21.9178 34.5131 20.9604 31.8729C20.2947 30.0329 19.0382 27.8789 18.0135 26.2932C17.8489 26.0389 17.1533 24.7375 16.9065 24.6926C16.5849 24.5056 16.5999 24.7898 16.727 24.4757C16.5699 24.6702 16.5101 24.4383 16.5625 25.2461C16.5774 25.478 16.6073 25.7622 16.6223 26.024L17.0112 30.0928C17.0785 30.4443 17.2057 30.8183 17.273 31.3269C17.4076 32.3591 17.4899 32.1496 17.6769 33.1145C17.6993 33.2342 17.6919 33.2342 17.7218 33.3837C17.819 33.8923 17.7143 33.3912 17.7592 33.5483L18.2079 34.8796C18.4548 35.3134 18.4024 35.4331 18.5969 35.9417C18.6044 35.9642 18.6118 35.9866 18.6193 36.009L20.1975 39.4346C20.2723 39.5842 20.362 39.7562 20.4368 39.9133C20.6537 40.3396 20.7136 40.4294 20.9604 40.8034C21.2072 41.1624 21.1698 41.3568 21.4316 41.7308C21.641 42.03 21.8878 42.3591 22.1197 42.4189Z" fill="#FEFEFE"/>
<path fill-rule="evenodd" clip-rule="evenodd" d="M51.4392 33.9596C51.2223 34.4682 50.9306 34.6926 50.6688 35.089C50.4594 35.4106 50.1303 35.9118 49.9957 36.2483C49.5693 37.3029 49.2552 37.8863 48.9111 38.9559C48.2529 41.0053 47.879 42.5311 47.9089 44.7375C47.9239 45.7398 48.0435 45.5378 48.1782 45.635C48.7915 45.1264 49.4571 44.6328 49.9209 44.0644C50.1976 43.7203 50.3921 43.451 50.6763 43.122C50.968 42.7854 51.1924 42.3291 51.4317 42.1122C51.7982 40.923 52.2245 40.9006 52.778 37.7068C53.0024 36.4129 53.5185 33.7651 53.5409 32.5236C53.0473 32.7779 51.6411 33.5333 51.4392 33.9596Z" fill="#FEFEFE"/>
<path fill-rule="evenodd" clip-rule="evenodd" d="M22.1201 42.4189C21.8882 42.359 21.6414 42.0299 21.432 41.7308C21.1702 41.3568 21.2076 41.1623 20.9608 40.8033C20.714 40.4293 20.6541 40.3396 20.4372 39.9133C20.3624 39.7562 20.2727 39.5842 20.1979 39.4346L18.6197 36.009C18.6122 35.9865 18.6048 35.9641 18.5973 35.9417C18.4028 35.4331 18.4552 35.3134 18.2084 34.8796L17.7596 33.5482C17.7147 33.3912 17.8194 33.8923 17.7222 33.3837C17.6923 33.2341 17.6998 33.2341 17.6773 33.1144C17.4903 32.1496 17.4081 32.359 17.2734 31.3268C17.2061 30.8182 17.079 30.4443 17.0116 30.0927L16.6227 26.0239C16.6078 25.7621 16.5778 25.4779 16.5629 25.246C16.5105 24.4383 16.5704 24.6701 16.7274 24.4757C16.6003 24.7898 16.5853 24.5056 16.9069 24.6926C16.7424 24.1615 16.144 23.3163 15.8224 22.8451C15.598 22.5086 15.6205 22.4412 15.3138 22.3665C15.1418 30.3246 15.8149 34.3261 18.9787 40.6088C19.5547 41.7532 20.2502 42.8676 20.9608 43.8699C21.1029 44.0718 21.1777 44.2065 21.3198 44.4159L21.8135 44.9021L22.1201 42.4189Z" fill="#FEFEFE"/>
<path fill-rule="evenodd" clip-rule="evenodd" d="M38.9331 44.5281C39.2921 44.3336 39.7409 43.7203 39.9503 43.3314C39.4791 43.2416 39.7858 43.5632 39.6736 42.8751C39.5689 42.1646 39.6212 39.285 39.6736 38.5819C39.7858 37.0262 39.9353 35.6799 40.1672 34.2812C40.5412 32.0299 40.429 32.4862 41.0273 30.3545C41.2069 29.7262 41.4013 29.1354 41.6257 28.5819C41.9698 27.7442 42.3512 27.4974 42.1418 27.0411C41.6855 27.0561 42.1119 26.8915 41.6556 27.6993C40.9974 28.896 40.2345 30.908 39.8232 32.2618C39.2697 34.0942 38.776 37.4151 38.6638 39.3897C38.4694 42.7854 38.8733 42.9275 38.9331 44.5281Z" fill="#FEFEFE"/>
<path fill-rule="evenodd" clip-rule="evenodd" d="M48.1781 45.635C48.0435 45.5378 47.9238 45.7397 47.9089 44.7375C47.879 42.5311 48.2529 41.0052 48.9111 38.9559C49.2552 37.8863 49.5693 37.3029 49.9957 36.2483C50.1303 35.9117 50.4594 35.4106 50.6688 35.089C50.9306 34.6926 51.2223 34.4682 51.4392 33.9596C49.4571 34.9319 47.5274 39.7861 46.9964 42.4039C46.8094 43.3613 46.5027 45.3508 46.7346 46.383C46.8094 46.6971 46.7795 46.57 46.8318 46.6896C47.0338 46.5849 48.0734 45.7697 48.1781 45.635Z" fill="#FEFEFE"/>
<path fill-rule="evenodd" clip-rule="evenodd" d="M25.3732 25.5752C25.3582 31.2521 26.4876 37.3703 29.068 41.9402C29.3672 42.4788 29.8534 43.2192 30.0927 43.7428C31.1099 42.7181 32.8601 38.1257 33.3987 36.1736C34.2364 33.1369 34.715 29.6066 34.745 26.1287C34.7749 22.4862 34.2962 19.1728 33.4959 15.9641C32.89 13.5408 31.4166 9.60656 30.1825 8.34253C29.7487 8.91097 29.5692 9.12787 29.1428 9.85338C26.727 13.8698 25.3956 20.5565 25.3732 25.5752Z" fill="#FEFEFE"/>
<path fill-rule="evenodd" clip-rule="evenodd" d="M38.9337 44.5281C38.8738 42.9275 38.4699 42.7854 38.6644 39.3898C38.7766 37.4152 39.2702 34.0943 39.8237 32.2618C40.2351 30.9081 40.998 28.8961 41.6562 27.6994C42.1124 26.8916 41.6861 27.0561 42.1423 27.0412C42.3518 27.4974 41.9703 27.7442 41.6263 28.5819C41.4019 29.1354 41.2074 29.7263 41.0279 30.3546C40.4295 32.4862 40.5417 32.03 40.1678 34.2813C39.9359 35.6799 39.7863 37.0262 39.6741 38.582C39.6218 39.285 39.5694 42.1646 39.6741 42.8752C39.7863 43.5633 39.4797 43.2417 39.9509 43.3314C40.1005 43.0472 41.5215 41.0801 42.3219 39.5693C42.98 38.3277 43.713 36.5775 44.087 34.9245C44.8424 31.6036 44.9097 26.0464 44.9023 22.3815C43.6981 23.1743 41.5664 27.0187 40.7586 28.8213C40.3847 29.6665 40.0481 30.549 39.7788 31.4466C39.188 33.3987 38.8514 35.5229 38.612 37.6919C38.4325 39.3823 38.0885 43.4885 38.6868 44.8498C38.8589 44.7226 38.8439 44.7899 38.9337 44.5281Z" fill="#FEFEFE"/>
<path fill-rule="evenodd" clip-rule="evenodd" d="M22.1197 42.4189C22.5385 39.2102 21.9178 34.5131 20.9604 31.8729C20.2947 30.0329 19.0382 27.8789 18.0135 26.2932C17.8489 26.0389 17.1533 24.7375 16.9065 24.6926C16.5849 24.5056 16.5999 24.7898 16.727 24.4757C16.5699 24.6702 16.5101 24.4383 16.5625 25.2461C16.5774 25.478 16.6073 25.7622 16.6223 26.024L17.0112 30.0928C17.0785 30.4443 17.2057 30.8183 17.273 31.3269C17.4076 32.3591 17.4899 32.1496 17.6769 33.1145C17.6993 33.2342 17.6919 33.2342 17.7218 33.3837C17.819 33.8923 17.7143 33.3912 17.7592 33.5483L18.2079 34.8796C18.4548 35.3134 18.4024 35.4331 18.5969 35.9417C18.6044 35.9642 18.6118 35.9866 18.6193 36.009L20.1975 39.4346C20.2723 39.5842 20.362 39.7562 20.4368 39.9133C20.6537 40.3396 20.7136 40.4294 20.9604 40.8034C21.2072 41.1624 21.1698 41.3568 21.4316 41.7308C21.641 42.03 21.8878 42.3591 22.1197 42.4189Z" fill="#FEFEFE"/>
<path fill-rule="evenodd" clip-rule="evenodd" d="M51.4392 33.9596C51.2223 34.4682 50.9306 34.6926 50.6688 35.089C50.4594 35.4106 50.1303 35.9118 49.9957 36.2483C49.5693 37.3029 49.2552 37.8863 48.9111 38.9559C48.2529 41.0053 47.879 42.5311 47.9089 44.7375C47.9239 45.7398 48.0435 45.5378 48.1782 45.635C48.7915 45.1264 49.4571 44.6328 49.9209 44.0644C50.1976 43.7203 50.3921 43.451 50.6763 43.122C50.968 42.7854 51.1924 42.3291 51.4317 42.1122C51.7982 40.923 52.2245 40.9006 52.778 37.7068C53.0024 36.4129 53.5185 33.7651 53.5409 32.5236C53.0473 32.7779 51.6411 33.5333 51.4392 33.9596Z" fill="#FEFEFE"/>
<path fill-rule="evenodd" clip-rule="evenodd" d="M22.1201 42.4189C21.8882 42.359 21.6414 42.0299 21.432 41.7308C21.1702 41.3568 21.2076 41.1623 20.9608 40.8033C20.714 40.4293 20.6541 40.3396 20.4372 39.9133C20.3624 39.7562 20.2727 39.5842 20.1979 39.4346L18.6197 36.009C18.6122 35.9865 18.6048 35.9641 18.5973 35.9417C18.4028 35.4331 18.4552 35.3134 18.2084 34.8796L17.7596 33.5482C17.7147 33.3912 17.8194 33.8923 17.7222 33.3837C17.6923 33.2341 17.6998 33.2341 17.6773 33.1144C17.4903 32.1496 17.4081 32.359 17.2734 31.3268C17.2061 30.8182 17.079 30.4443 17.0116 30.0927L16.6227 26.0239C16.6078 25.7621 16.5778 25.4779 16.5629 25.246C16.5105 24.4383 16.5704 24.6701 16.7274 24.4757C16.6003 24.7898 16.5853 24.5056 16.9069 24.6926C16.7424 24.1615 16.144 23.3163 15.8224 22.8451C15.598 22.5086 15.6205 22.4412 15.3138 22.3665C15.1418 30.3246 15.8149 34.3261 18.9787 40.6088C19.5547 41.7532 20.2502 42.8676 20.9608 43.8699C21.1029 44.0718 21.1777 44.2065 21.3198 44.4159L21.8135 44.9021L22.1201 42.4189Z" fill="#FEFEFE"/>
<path fill-rule="evenodd" clip-rule="evenodd" d="M38.9331 44.5281C39.2921 44.3336 39.7409 43.7203 39.9503 43.3314C39.4791 43.2416 39.7858 43.5632 39.6736 42.8751C39.5689 42.1646 39.6212 39.285 39.6736 38.5819C39.7858 37.0262 39.9353 35.6799 40.1672 34.2812C40.5412 32.0299 40.429 32.4862 41.0273 30.3545C41.2069 29.7262 41.4013 29.1354 41.6257 28.5819C41.9698 27.7442 42.3512 27.4974 42.1418 27.0411C41.6855 27.0561 42.1119 26.8915 41.6556 27.6993C40.9974 28.896 40.2345 30.908 39.8232 32.2618C39.2697 34.0942 38.776 37.4151 38.6638 39.3897C38.4694 42.7854 38.8733 42.9275 38.9331 44.5281Z" fill="#FEFEFE"/>
<path fill-rule="evenodd" clip-rule="evenodd" d="M48.1781 45.635C48.0435 45.5378 47.9238 45.7397 47.9089 44.7375C47.879 42.5311 48.2529 41.0052 48.9111 38.9559C49.2552 37.8863 49.5693 37.3029 49.9957 36.2483C50.1303 35.9117 50.4594 35.4106 50.6688 35.089C50.9306 34.6926 51.2223 34.4682 51.4392 33.9596C49.4571 34.9319 47.5274 39.7861 46.9964 42.4039C46.8094 43.3613 46.5027 45.3508 46.7346 46.383C46.8094 46.6971 46.7795 46.57 46.8318 46.6896C47.0338 46.5849 48.0734 45.7697 48.1781 45.635Z" fill="#FEFEFE"/>
<path fill-rule="evenodd" clip-rule="evenodd" d="M11.6036 50.1078L13.2341 50.1377C13.5258 49.7488 13.7951 49.2477 14.1616 48.5296C15.4779 49.2477 16.8018 50.3771 18.6642 50.0181C20.4144 49.6815 21.6036 48.41 22.1347 46.8318C23.294 47.8116 24.6926 48.9859 26.6523 48.3726C28.1855 47.8939 29.4944 46.2484 30.1526 45.1115C30.3621 45.4257 30.6388 45.7548 30.8931 46.0614C31.671 47.0113 32.6358 47.7667 33.7727 48.1931C36.3307 49.1654 37.5349 46.6299 38.395 46.6598C38.5895 46.9515 38.6867 47.2955 39.1205 47.9313C39.3823 48.3127 39.659 48.6343 40.0854 48.9335C42.0524 50.3172 43.7503 49.6366 45.6052 48.3726C45.9418 48.1407 45.8595 48.0884 46.2484 48.2005C46.6224 48.3127 46.5925 48.2978 46.772 48.6568C47.0712 49.2477 47.1609 49.5618 47.692 49.9283C47.4751 49.5768 46.9515 49.0981 46.7271 48.2529C47.2357 47.6321 47.8266 47.4676 49.3225 45.5154C50.1452 44.4384 50.3247 44.012 50.938 43.0173C51.125 42.7181 51.3345 42.4788 51.4317 42.1123C52.03 41.469 53.2791 38.2977 53.511 37.5049C53.7802 36.5775 53.9822 35.8071 54.1467 34.7824C54.2215 34.2738 54.4459 32.2917 54.3487 31.7607C54.1617 30.8108 52.8154 32.2169 52.4788 32.4862C51.7458 33.0771 49.9283 34.7375 49.3898 35.478L48.7017 36.3755C48.4848 36.6971 48.2978 36.9814 48.0659 37.3479C46.8468 39.2775 45.8071 42.0599 45.665 44.7301C45.5828 46.1886 45.9044 46.8468 45.9343 47.9238C43.3614 49.9956 40.4219 50.3172 38.7615 46.6074C39.0831 45.7996 41.0352 44.947 43.9672 35.7846C44.573 33.9148 45.1564 31.11 45.4332 29.0157C45.6501 27.4451 45.8969 23.0247 45.5902 21.3044C45.3883 20.1451 44.6777 21.5138 44.5655 21.656C44.2664 22.0449 44.0195 22.4937 43.7353 22.9349C43.1445 23.8773 42.6957 24.6029 42.1422 25.5752C40.5715 28.3052 38.9784 30.8856 38.2604 34.4084L37.6396 38.0285C36.8692 43.9746 37.8116 44.8198 37.8789 46.2708C37.6022 46.5027 37.5947 46.5775 37.3254 46.6523C36.8318 47.6321 34.947 48.2005 33.3987 47.3479C32.4563 46.8318 30.9679 45.5005 30.6538 44.401C30.923 43.84 31.3493 43.2192 31.6859 42.6358C34.3561 37.9836 35.6052 31.7457 35.5902 25.9043C35.5752 19.5916 34.2439 14.2887 31.5887 9.30737C31.3793 8.91844 31.2521 8.73893 31.0427 8.43227C30.8557 8.14057 30.6238 7.90123 30.4593 7.51978C30.018 7.41507 30.0255 7.44498 29.7562 7.86383C24.8572 15.3732 23.8998 27.5423 26.383 36.2558C27.1534 38.9485 27.6395 40.19 28.8138 42.4713C29.1504 43.122 29.5543 43.7203 29.8535 44.401C29.6964 44.8198 29.4944 45.0517 29.2925 45.3883C28.7914 46.2185 27.5797 47.1759 26.7644 47.5199C24.8647 48.3202 23.5857 46.944 22.5834 46.0614C22.6881 44.588 22.9724 44.9245 22.8976 42.0898C22.8228 39.2252 21.6635 33.5707 20.923 31.0427C20.1451 28.4099 18.9783 25.9267 17.6619 23.9746C17.3029 23.4435 15.5004 20.9753 15.1862 20.9155C14.8571 20.8556 14.917 21.0576 14.8796 21.1025C14.6402 21.5587 15.074 27.834 15.1488 28.8811C15.5303 33.9971 16.0913 37.4226 18.38 41.6934C18.8512 42.5685 19.2326 43.3464 19.7786 44.1317C19.9058 44.3187 20.003 44.4982 20.1376 44.6777L21.4615 46.383C21.2296 47.0487 20.8781 47.6545 20.5041 47.849C20.1227 48.8363 18.4024 49.2178 17.3553 49.0382C16.5924 48.9036 15.0292 47.9088 14.543 47.475L14.6926 45.4406C14.6627 43.4511 14.0045 41.5363 13.2715 39.8909C13.0247 39.3374 12.7928 38.6942 12.4488 38.3052C12.5684 38.7465 12.7779 39.1878 12.9349 39.644C13.4734 41.1699 13.7128 42.9649 13.7352 44.6478L13.6455 46.6299C12.2693 46.0016 9.82347 42.8677 8.89602 41.3718C8.66416 40.9978 8.25279 40.1452 8.05832 39.6515C7.25054 37.6321 6.76437 35.0292 6.80177 32.7255C7.12339 32.8527 8.18547 33.5408 8.3949 33.8849C9.03065 34.0494 10.8856 35.8594 11.4091 36.5924L12.2393 37.834C11.9102 36.7196 10.1451 34.2289 9.31487 33.3688C8.88106 32.92 8.49961 32.5984 8.01344 32.2618L7.34777 31.7757C6.85413 31.6111 6.4652 31.1025 6.08374 31.4914C5.56766 32.561 7.76662 40.19 8.26774 41.3793C9.09796 43.3539 10.3994 45.2462 11.7756 46.5925L13.3089 48.036C13.092 49.0083 12.4338 49.6964 11.6036 50.1078ZM48.6643 50.7585H49.0009C48.8288 50.6837 48.6493 50.6239 48.4025 50.6089C48.4923 50.6613 48.5745 50.7136 48.6643 50.7585ZM53.324 50.8333L53.3464 50.8408C53.3464 50.8333 53.3464 50.8333 53.3464 50.8333C53.3389 50.8333 53.3315 50.8333 53.324 50.8333Z" fill="#FEFEFE"/>
<path fill-rule="evenodd" clip-rule="evenodd" d="M25.3732 25.5752C25.3582 31.2521 26.4876 37.3703 29.068 41.9402C29.3672 42.4788 29.8534 43.2192 30.0927 43.7428C31.1099 42.7181 32.8601 38.1257 33.3987 36.1736C34.2364 33.1369 34.715 29.6066 34.745 26.1287C34.7749 22.4862 34.2962 19.1728 33.4959 15.9641C32.89 13.5408 31.4166 9.60656 30.1825 8.34253C29.7487 8.91097 29.5692 9.12787 29.1428 9.85338C26.727 13.8698 25.3956 20.5565 25.3732 25.5752Z" fill="#FEFEFE"/>
<path fill-rule="evenodd" clip-rule="evenodd" d="M38.9337 44.5281C38.8738 42.9275 38.4699 42.7854 38.6644 39.3898C38.7766 37.4152 39.2702 34.0943 39.8237 32.2618C40.2351 30.9081 40.998 28.8961 41.6562 27.6994C42.1124 26.8916 41.6861 27.0561 42.1423 27.0412C42.3518 27.4974 41.9703 27.7442 41.6263 28.5819C41.4019 29.1354 41.2074 29.7263 41.0279 30.3546C40.4295 32.4862 40.5417 32.03 40.1678 34.2813C39.9359 35.6799 39.7863 37.0262 39.6741 38.582C39.6218 39.285 39.5694 42.1646 39.6741 42.8752C39.7863 43.5633 39.4797 43.2417 39.9509 43.3314C40.1005 43.0472 41.5215 41.0801 42.3219 39.5693C42.98 38.3277 43.713 36.5775 44.087 34.9245C44.8424 31.6036 44.9097 26.0464 44.9023 22.3815C43.6981 23.1743 41.5664 27.0187 40.7586 28.8213C40.3847 29.6665 40.0481 30.549 39.7788 31.4466C39.188 33.3987 38.8514 35.5229 38.612 37.6919C38.4325 39.3823 38.0885 43.4885 38.6868 44.8498C38.8589 44.7226 38.8439 44.7899 38.9337 44.5281Z" fill="#FEFEFE"/>
<path fill-rule="evenodd" clip-rule="evenodd" d="M22.1197 42.4189C22.5385 39.2102 21.9178 34.5131 20.9604 31.8729C20.2947 30.0329 19.0382 27.8789 18.0135 26.2932C17.8489 26.0389 17.1533 24.7375 16.9065 24.6926C16.5849 24.5056 16.5999 24.7898 16.727 24.4757C16.5699 24.6702 16.5101 24.4383 16.5625 25.2461C16.5774 25.478 16.6073 25.7622 16.6223 26.024L17.0112 30.0928C17.0785 30.4443 17.2057 30.8183 17.273 31.3269C17.4076 32.3591 17.4899 32.1496 17.6769 33.1145C17.6993 33.2342 17.6919 33.2342 17.7218 33.3837C17.819 33.8923 17.7143 33.3912 17.7592 33.5483L18.2079 34.8796C18.4548 35.3134 18.4024 35.4331 18.5969 35.9417C18.6044 35.9642 18.6118 35.9866 18.6193 36.009L20.1975 39.4346C20.2723 39.5842 20.362 39.7562 20.4368 39.9133C20.6537 40.3396 20.7136 40.4294 20.9604 40.8034C21.2072 41.1624 21.1698 41.3568 21.4316 41.7308C21.641 42.03 21.8878 42.3591 22.1197 42.4189Z" fill="#FEFEFE"/>
<path fill-rule="evenodd" clip-rule="evenodd" d="M51.4392 33.9596C51.2223 34.4682 50.9306 34.6926 50.6688 35.089C50.4594 35.4106 50.1303 35.9118 49.9957 36.2483C49.5693 37.3029 49.2552 37.8863 48.9111 38.9559C48.2529 41.0053 47.879 42.5311 47.9089 44.7375C47.9239 45.7398 48.0435 45.5378 48.1782 45.635C48.7915 45.1264 49.4571 44.6328 49.9209 44.0644C50.1976 43.7203 50.3921 43.451 50.6763 43.122C50.968 42.7854 51.1924 42.3291 51.4317 42.1122C51.7982 40.923 52.2245 40.9006 52.778 37.7068C53.0024 36.4129 53.5185 33.7651 53.5409 32.5236C53.0473 32.7779 51.6411 33.5333 51.4392 33.9596Z" fill="#FEFEFE"/>
<path fill-rule="evenodd" clip-rule="evenodd" d="M48.1781 45.635C48.0435 45.5378 47.9238 45.7397 47.9089 44.7375C47.879 42.5311 48.2529 41.0052 48.9111 38.9559C49.2552 37.8863 49.5693 37.3029 49.9957 36.2483C50.1303 35.9117 50.4594 35.4106 50.6688 35.089C50.9306 34.6926 51.2223 34.4682 51.4392 33.9596C49.4571 34.9319 47.5274 39.7861 46.9964 42.4039C46.8094 43.3613 46.5027 45.3508 46.7346 46.383C46.8094 46.6971 46.7795 46.57 46.8318 46.6896C47.0338 46.5849 48.0734 45.7697 48.1781 45.635Z" fill="#FEFEFE"/>
<path fill-rule="evenodd" clip-rule="evenodd" d="M25.3732 25.5752C25.3582 31.2521 26.4876 37.3703 29.068 41.9402C29.3672 42.4788 29.8534 43.2192 30.0927 43.7428C31.1099 42.7181 32.8601 38.1257 33.3987 36.1736C34.2364 33.1369 34.715 29.6066 34.745 26.1287C34.7749 22.4862 34.2962 19.1728 33.4959 15.9641C32.89 13.5408 31.4166 9.60656 30.1825 8.34253C29.7487 8.91097 29.5692 9.12787 29.1428 9.85338C26.727 13.8698 25.3956 20.5565 25.3732 25.5752Z" fill="#FEFEFE"/>
<path fill-rule="evenodd" clip-rule="evenodd" d="M22.1197 42.4189C22.5385 39.2102 21.9178 34.5131 20.9604 31.8729C20.2947 30.0329 19.0382 27.8789 18.0135 26.2932C17.8489 26.0389 17.1533 24.7375 16.9065 24.6926C16.5849 24.5056 16.5999 24.7898 16.727 24.4757C16.5699 24.6702 16.5101 24.4383 16.5625 25.2461C16.5774 25.478 16.6073 25.7622 16.6223 26.024L17.0112 30.0928C17.0785 30.4443 17.2057 30.8183 17.273 31.3269C17.4076 32.3591 17.4899 32.1496 17.6769 33.1145C17.6993 33.2342 17.6919 33.2342 17.7218 33.3837C17.819 33.8923 17.7143 33.3912 17.7592 33.5483L18.2079 34.8796C18.4548 35.3134 18.4024 35.4331 18.5969 35.9417C18.6044 35.9642 18.6118 35.9866 18.6193 36.009L20.1975 39.4346C20.2723 39.5842 20.362 39.7562 20.4368 39.9133C20.6537 40.3396 20.7136 40.4294 20.9604 40.8034C21.2072 41.1624 21.1698 41.3568 21.4316 41.7308C21.641 42.03 21.8878 42.3591 22.1197 42.4189Z" fill="#FEFEFE"/>
<path fill-rule="evenodd" clip-rule="evenodd" d="M51.4392 33.9596C51.2223 34.4682 50.9306 34.6926 50.6688 35.089C50.4594 35.4106 50.1303 35.9118 49.9957 36.2483C49.5693 37.3029 49.2552 37.8863 48.9111 38.9559C48.2529 41.0053 47.879 42.5311 47.9089 44.7375C47.9239 45.7398 48.0435 45.5378 48.1782 45.635C48.7915 45.1264 49.4571 44.6328 49.9209 44.0644C50.1976 43.7203 50.3921 43.451 50.6763 43.122C50.968 42.7854 51.1924 42.3291 51.4317 42.1122C51.7982 40.923 52.2245 40.9006 52.778 37.7068C53.0024 36.4129 53.5185 33.7651 53.5409 32.5236C53.0473 32.7779 51.6411 33.5333 51.4392 33.9596Z" fill="#FEFEFE"/>
</svg>
