<svg width="14" height="14" viewBox="0 0 14 14" fill="none" xmlns="http://www.w3.org/2000/svg"><path d="M8.10538 12.5121L8.1036 8.10141L12.5142 8.1032C13.1191 8.1029 13.6142 7.60779 13.6145 7.00295C13.6148 6.39025 13.1241 5.89954 12.5114 5.89984L8.10467 5.90198L8.10288 1.49134C8.09925 0.882572 7.61248 0.387937 6.99978 0.388235C6.391 0.392458 5.89982 0.883641 5.89953 1.48848L5.90131 5.89913L1.49067 5.89734C0.881901 5.89371 0.386789 6.38882 0.390421 6.99759C0.390272 7.30394 0.51582 7.57881 0.712102 7.77509C0.908384 7.97137 1.18718 8.10085 1.4896 8.09677L5.90024 8.10641L5.90202 12.5171C5.90187 12.8234 6.0235 13.0943 6.2237 13.2946C6.42391 13.4948 6.69878 13.6203 7.0012 13.6162C7.60998 13.612 8.10509 13.1169 8.10538 12.5121Z" fill="#fff"/></svg>