<svg width="38" height="11" viewBox="0 0 38 11" fill="none" xmlns="http://www.w3.org/2000/svg">
<path opacity="0.2" fill-rule="evenodd" clip-rule="evenodd" d="M33.9 0.0100002H26.65C26.9093 1.23988 27.5712 2.3482 28.5311 3.15961C29.491 3.97101 30.6941 4.43917 31.95 4.49H37.71C37.79 4.26 37.79 3.96 37.79 3.74C37.7836 3.23757 37.6771 2.74145 37.4767 2.28065C37.2763 1.81986 36.9861 1.40365 36.623 1.05635C36.2598 0.70904 35.8311 0.43763 35.3619 0.25797C34.8926 0.0783098 34.3922 -0.00598977 33.89 0.0100002H33.9ZM27.27 4.86V10.46H30.77V7.47H33.89C35.61 7.47 37.09 6.35 37.55 4.86H27.27ZM14.8 0.0100002V10.46H17.92C17.92 10.46 18.7 10.46 19.09 9.71L21.82 4.49H22.2V10.46H25.7V0.0100002H22.6C22.6 0.0100002 21.82 0.08 21.43 0.75L18.7 5.98H18.31V0.0100002H14.81H14.8ZM0 10.46V0.0100002H3.51C3.51 0.0100002 4.52 0.00999999 5.07 1.5C6.47 5.46 6.63 5.98 6.63 5.98C6.63 5.98 6.93 5.01 8.18 1.5C8.73 0 9.74 0 9.74 0H13.24V10.46H9.74V4.86H9.35L7.41 10.46H5.85L3.9 4.86H3.51V10.46H0.00999999H0Z" fill="white"/>
</svg>
