<svg width="34" height="19" viewBox="0 0 34 19" fill="none" xmlns="http://www.w3.org/2000/svg">
<path opacity="0.2" fill-rule="evenodd" clip-rule="evenodd" d="M10.6155 19C5.16153 19 0.769531 14.731 0.769531 9.50004C0.769531 4.27004 5.16153 4.29974e-05 10.6145 4.29974e-05C12.6835 4.29974e-05 14.6005 0.616043 16.1835 1.66504C13.9615 3.58504 12.5575 6.38204 12.5575 9.50104C12.5575 12.619 13.9615 15.416 16.1835 17.336C14.5315 18.4276 12.5935 19.0068 10.6145 19.001L10.6155 19ZM20.4495 9.50004C20.4495 12.386 19.1155 14.975 17.0025 16.72C14.8895 14.975 13.5565 12.386 13.5565 9.50004C13.5565 6.61504 14.8895 4.02604 17.0025 2.28004C19.1155 4.02604 20.4495 6.61504 20.4495 9.50004ZM17.8225 17.336C20.0455 15.416 21.4495 12.619 21.4495 9.50104C21.4495 6.38204 20.0455 3.58504 17.8225 1.66504C19.4745 0.573486 21.4115 -0.00574773 23.3925 4.29974e-05C28.8465 4.29974e-05 33.2375 4.27004 33.2375 9.50004C33.2375 14.731 28.8465 19 23.3925 19C21.4125 19.006 19.4735 18.4271 17.8225 17.336Z" fill="white"/>
</svg>
