<svg width="38" height="12" viewBox="0 0 38 12" fill="none" xmlns="http://www.w3.org/2000/svg">
<path opacity="0.2" fill-rule="evenodd" clip-rule="evenodd" d="M19.9141 3.598C19.8931 5.166 21.3961 6.041 22.5291 6.561C23.6931 7.094 24.0841 7.437 24.0791 7.914C24.0701 8.644 23.1511 8.967 22.2901 8.979C20.7891 9.001 19.9161 8.597 19.2221 8.292L18.6821 10.677C19.3781 10.979 20.6671 11.243 22.0041 11.255C25.1421 11.255 27.1951 9.795 27.2061 7.531C27.2191 4.658 22.9901 4.499 23.0191 3.215C23.0291 2.825 23.4231 2.41 24.2871 2.305C24.7151 2.251 25.8951 2.21 27.2331 2.791L27.7581 0.483C26.86 0.16539 25.9146 0.00208 24.9621 0C22.0081 0 19.9311 1.48 19.9141 3.598ZM32.8051 0.198C32.2321 0.198 31.7491 0.514 31.5341 0.998L27.0511 11.085H30.1871L30.8111 9.46H34.6431L35.0051 11.085H37.7691L35.3571 0.199H32.8061L32.8051 0.198ZM33.2441 3.139L34.1491 7.227H31.6701L33.2441 3.139ZM16.1121 0.199L13.6401 11.085H16.6281L19.0981 0.199H16.1121ZM11.6911 0.199L8.58106 7.609L7.32206 1.308C7.17506 0.605 6.59206 0.198 5.94406 0.198H0.860062L0.789062 0.515C1.83206 0.728 3.01906 1.072 3.73706 1.441C4.17706 1.666 4.30206 1.863 4.44706 2.397L6.82906 11.085H9.98806L14.8291 0.199H11.6911Z" fill="white"/>
</svg>
