<svg width="44" height="45" viewBox="0 0 44 45" fill="none" xmlns="http://www.w3.org/2000/svg">
<rect y="0.585815" width="43.8462" height="43.8462" rx="21.9231" fill="#E7707C"/>
<path d="M21.9235 12.8632C16.5982 12.8632 12.2773 17.184 12.2773 22.5093C12.2773 24.6417 12.9676 26.6057 14.1348 28.205L12.9058 31.8413L16.7385 30.646C18.2368 31.6 20.0156 32.1555 21.9235 32.1555C27.2488 32.1555 31.5697 27.8346 31.5697 22.5093C31.5697 17.184 27.2488 12.8632 21.9235 12.8632ZM26.3398 27.6831C24.589 28.3846 22.5015 27.7056 20.2176 25.9716C17.9337 24.2377 16.4299 21.7967 16.3288 19.9842C16.2278 18.1716 17.7037 17.257 18.5061 17.2626C19.3086 17.2682 20.1896 19.8326 20.2008 20.2254C20.212 20.6239 19.2188 21.3309 19.1795 21.6676C19.1402 22.0043 20.5319 23.6653 21.1211 24.1142C21.7047 24.5575 22.9111 25.4105 23.534 25.3319C24.1513 25.2477 24.5609 24.0076 24.9537 23.929C25.3465 23.8505 27.4901 24.9167 27.7034 25.1916C27.9166 25.4722 27.8942 27.0659 26.3398 27.6831Z" fill="white"/>
</svg>
